<svg xmlns="http://www.w3.org/2000/svg" xmlns:xlink="http://www.w3.org/1999/xlink" width="1920" zoomAndPan="magnify" viewBox="0 0 1440 809.999993" height="1080" preserveAspectRatio="xMidYMid meet" version="1.0"><defs><filter x="0%" y="0%" width="100%" height="100%" id="2b7d9ad890"><feColorMatrix values="0 0 0 0 1 0 0 0 0 1 0 0 0 0 1 0 0 0 1 0" color-interpolation-filters="sRGB"/></filter><mask id="3403eea428"><g filter="url(#2b7d9ad890)"><rect x="-144" width="1728" fill="#000000" y="-80.999999" height="971.999992" fill-opacity="0.65"/></g></mask><clipPath id="66b3969998"><path d="M 121 0 L 945 0 L 945 513 L 121 513 Z M 121 0 " clip-rule="nonzero"/></clipPath><clipPath id="3a9bf32d68"><path d="M 297.757812 633.425781 L 0.902344 -133.90625 L 768.230469 -430.761719 L 1065.085938 336.570312 Z M 297.757812 633.425781 " clip-rule="nonzero"/></clipPath><clipPath id="4d02bb916a"><path d="M 297.757812 633.425781 L 0.902344 -133.90625 L 768.230469 -430.761719 L 1065.085938 336.570312 Z M 297.757812 633.425781 " clip-rule="nonzero"/></clipPath><clipPath id="60e325f2d8"><path d="M 384.5625 -282.304688 C 390.84375 -284.734375 397.179688 -287.007812 403.566406 -289.125 C 409.957031 -291.246094 416.398438 -293.203125 422.882812 -295.007812 C 429.371094 -296.808594 435.898438 -298.449219 442.464844 -299.933594 C 449.03125 -301.414062 455.632812 -302.734375 462.261719 -303.890625 C 468.894531 -305.046875 475.550781 -306.042969 482.234375 -306.871094 C 488.914062 -307.703125 495.609375 -308.371094 502.324219 -308.871094 C 509.039062 -309.375 515.757812 -309.710938 522.488281 -309.882812 C 529.21875 -310.054688 535.949219 -310.058594 542.679688 -309.902344 C 549.410156 -309.742188 556.132812 -309.417969 562.847656 -308.929688 C 569.5625 -308.441406 576.261719 -307.789062 582.941406 -306.972656 C 589.625 -306.152344 596.285156 -305.171875 602.917969 -304.027344 C 609.550781 -302.882812 616.15625 -301.578125 622.726562 -300.109375 C 629.296875 -298.640625 635.824219 -297.011719 642.316406 -295.222656 C 648.804688 -293.433594 655.246094 -291.484375 661.640625 -289.378906 C 668.035156 -287.273438 674.375 -285.011719 680.660156 -282.597656 C 686.941406 -280.179688 693.164062 -277.609375 699.320312 -274.886719 C 705.476562 -272.164062 711.566406 -269.292969 717.582031 -266.273438 C 723.597656 -263.253906 729.535156 -260.085938 735.398438 -256.773438 C 741.257812 -253.460938 747.035156 -250.007812 752.726562 -246.410156 C 758.417969 -242.8125 764.015625 -239.078125 769.523438 -235.207031 C 775.03125 -231.335938 780.441406 -227.332031 785.753906 -223.195312 C 791.066406 -219.058594 796.273438 -214.796875 801.375 -210.402344 C 806.476562 -206.011719 811.46875 -201.496094 816.347656 -196.859375 C 821.226562 -192.222656 825.992188 -187.46875 830.636719 -182.597656 C 835.285156 -177.726562 839.808594 -172.742188 844.210938 -167.648438 C 848.613281 -162.554688 852.890625 -157.355469 857.035156 -152.054688 C 861.183594 -146.75 865.199219 -141.347656 869.082031 -135.847656 C 872.960938 -130.347656 876.707031 -124.753906 880.3125 -119.070312 C 883.921875 -113.386719 887.386719 -107.617188 890.710938 -101.761719 C 894.035156 -95.910156 897.214844 -89.976562 900.246094 -83.964844 C 903.277344 -77.957031 906.164062 -71.875 908.898438 -65.722656 C 911.632812 -59.570312 914.210938 -53.355469 916.640625 -47.078125 C 919.070312 -40.796875 921.34375 -34.460938 923.460938 -28.074219 C 925.582031 -21.683594 927.539062 -15.242188 929.34375 -8.757812 C 931.144531 -2.269531 932.785156 4.257812 934.269531 10.824219 C 935.75 17.390625 937.070312 23.992188 938.226562 30.621094 C 939.382812 37.253906 940.378906 43.910156 941.207031 50.59375 C 942.039062 57.273438 942.707031 63.96875 943.207031 70.683594 C 943.707031 77.398438 944.046875 84.117188 944.21875 90.847656 C 944.390625 97.578125 944.394531 104.308594 944.238281 111.039062 C 944.078125 117.769531 943.753906 124.492188 943.265625 131.207031 C 942.777344 137.921875 942.125 144.621094 941.308594 151.300781 C 940.488281 157.984375 939.507812 164.644531 938.363281 171.277344 C 937.21875 177.910156 935.914062 184.515625 934.445312 191.085938 C 932.976562 197.65625 931.347656 204.183594 929.558594 210.675781 C 927.769531 217.164062 925.820312 223.605469 923.714844 230 C 921.609375 236.394531 919.347656 242.734375 916.933594 249.019531 C 914.515625 255.300781 911.945312 261.523438 909.222656 267.679688 C 906.5 273.835938 903.628906 279.925781 900.609375 285.941406 C 897.585938 291.957031 894.421875 297.894531 891.109375 303.757812 C 887.796875 309.617188 884.339844 315.394531 880.746094 321.085938 C 877.148438 326.777344 873.414062 332.375 869.542969 337.882812 C 865.671875 343.390625 861.667969 348.800781 857.53125 354.113281 C 853.394531 359.425781 849.132812 364.632812 844.738281 369.734375 C 840.347656 374.835938 835.832031 379.828125 831.195312 384.707031 C 826.558594 389.585938 821.804688 394.351562 816.929688 398.996094 C 812.058594 403.644531 807.078125 408.167969 801.984375 412.570312 C 796.890625 416.972656 791.691406 421.25 786.390625 425.394531 C 781.085938 429.542969 775.683594 433.558594 770.183594 437.441406 C 764.683594 441.320312 759.089844 445.066406 753.40625 448.671875 C 747.722656 452.28125 741.953125 455.746094 736.097656 459.070312 C 730.246094 462.394531 724.3125 465.574219 718.300781 468.605469 C 712.292969 471.636719 706.210938 474.523438 700.058594 477.257812 C 693.90625 479.992188 687.691406 482.570312 681.410156 485 C 675.132812 487.429688 668.796875 489.703125 662.40625 491.820312 C 656.019531 493.941406 649.578125 495.898438 643.09375 497.703125 C 636.605469 499.503906 630.078125 501.144531 623.511719 502.625 C 616.945312 504.109375 610.34375 505.429688 603.710938 506.585938 C 597.082031 507.742188 590.425781 508.738281 583.742188 509.566406 C 577.0625 510.398438 570.367188 511.0625 563.652344 511.566406 C 556.9375 512.066406 550.214844 512.40625 543.488281 512.578125 C 536.757812 512.75 530.027344 512.753906 523.296875 512.597656 C 516.566406 512.4375 509.84375 512.113281 503.128906 511.625 C 496.414062 511.136719 489.714844 510.484375 483.03125 509.667969 C 476.351562 508.847656 469.691406 507.867188 463.058594 506.722656 C 456.421875 505.578125 449.820312 504.273438 443.25 502.804688 C 436.679688 501.335938 430.152344 499.707031 423.660156 497.917969 C 417.171875 496.128906 410.726562 494.179688 404.332031 492.074219 C 397.9375 489.96875 391.601562 487.707031 385.316406 485.292969 C 379.035156 482.875 372.8125 480.304688 366.65625 477.582031 C 360.496094 474.859375 354.410156 471.988281 348.394531 468.96875 C 342.378906 465.945312 336.441406 462.78125 330.578125 459.46875 C 324.71875 456.15625 318.941406 452.699219 313.25 449.105469 C 307.558594 445.507812 301.960938 441.773438 296.453125 437.902344 C 290.945312 434.03125 285.535156 430.027344 280.222656 425.890625 C 274.910156 421.753906 269.703125 417.492188 264.601562 413.097656 C 259.5 408.707031 254.507812 404.191406 249.628906 399.554688 C 244.75 394.917969 239.984375 390.164062 235.335938 385.289062 C 230.691406 380.417969 226.167969 375.4375 221.765625 370.34375 C 217.363281 365.25 213.085938 360.050781 208.941406 354.75 C 204.792969 349.445312 200.777344 344.042969 196.894531 338.542969 C 193.015625 333.042969 189.269531 327.449219 185.664062 321.765625 C 182.054688 316.082031 178.589844 310.3125 175.265625 304.457031 C 171.941406 298.605469 168.761719 292.671875 165.730469 286.660156 C 162.695312 280.652344 159.8125 274.570312 157.078125 268.417969 C 154.34375 262.265625 151.761719 256.050781 149.335938 249.769531 C 146.90625 243.492188 144.632812 237.15625 142.515625 230.765625 C 140.394531 224.375 138.4375 217.9375 136.632812 211.453125 C 134.832031 204.964844 133.191406 198.4375 131.707031 191.871094 C 130.226562 185.304688 128.90625 178.703125 127.75 172.070312 C 126.59375 165.441406 125.597656 158.785156 124.769531 152.101562 C 123.9375 145.421875 123.269531 138.726562 122.769531 132.011719 C 122.265625 125.296875 121.929688 118.574219 121.757812 111.847656 C 121.585938 105.117188 121.582031 98.386719 121.738281 91.65625 C 121.898438 84.925781 122.222656 78.203125 122.710938 71.488281 C 123.199219 64.773438 123.851562 58.074219 124.667969 51.390625 C 125.488281 44.710938 126.46875 38.050781 127.613281 31.417969 C 128.757812 24.78125 130.0625 18.179688 131.53125 11.609375 C 133 5.039062 134.628906 -1.488281 136.417969 -7.980469 C 138.207031 -14.46875 140.15625 -20.914062 142.261719 -27.308594 C 144.367188 -33.703125 146.628906 -40.039062 149.042969 -46.324219 C 151.460938 -52.605469 154.03125 -58.828125 156.753906 -64.984375 C 159.476562 -71.144531 162.347656 -77.230469 165.367188 -83.246094 C 168.386719 -89.261719 171.554688 -95.199219 174.867188 -101.0625 C 178.179688 -106.921875 181.632812 -112.699219 185.230469 -118.390625 C 188.828125 -124.082031 192.5625 -129.679688 196.433594 -135.1875 C 200.304688 -140.695312 204.308594 -146.105469 208.445312 -151.417969 C 212.582031 -156.730469 216.84375 -161.9375 221.238281 -167.039062 C 225.628906 -172.140625 230.144531 -177.132812 234.78125 -182.011719 C 239.417969 -186.890625 244.171875 -191.65625 249.042969 -196.304688 C 253.914062 -200.949219 258.898438 -205.472656 263.992188 -209.875 C 269.085938 -214.277344 274.285156 -218.554688 279.585938 -222.699219 C 284.890625 -226.847656 290.292969 -230.863281 295.792969 -234.746094 C 301.292969 -238.625 306.886719 -242.371094 312.570312 -245.976562 C 318.253906 -249.585938 324.023438 -253.050781 329.878906 -256.375 C 335.730469 -259.699219 341.664062 -262.878906 347.675781 -265.910156 C 353.683594 -268.945312 359.765625 -271.828125 365.917969 -274.5625 C 372.070312 -277.296875 378.285156 -279.878906 384.5625 -282.304688 Z M 384.5625 -282.304688 " clip-rule="nonzero"/></clipPath><linearGradient x1="-0.147514" gradientTransform="matrix(-296.847379, -767.307393, 767.307393, -296.847379, 297.75812, 633.424788)" y1="-0.146068" x2="0.906957" gradientUnits="userSpaceOnUse" y2="0.898065" id="5043d66cce"><stop stop-opacity="1" stop-color="rgb(100%, 100%, 100%)" offset="0"/><stop stop-opacity="1" stop-color="rgb(100%, 100%, 100%)" offset="0.125"/><stop stop-opacity="1" stop-color="rgb(99.983215%, 99.987793%, 99.992371%)" offset="0.140625"/><stop stop-opacity="1" stop-color="rgb(99.794006%, 99.861145%, 99.919128%)" offset="0.148438"/><stop stop-opacity="1" stop-color="rgb(99.447632%, 99.629211%, 99.786377%)" offset="0.15625"/><stop stop-opacity="1" stop-color="rgb(99.101257%, 99.398804%, 99.6521%)" offset="0.164062"/><stop stop-opacity="1" stop-color="rgb(98.754883%, 99.16687%, 99.517822%)" offset="0.171875"/><stop stop-opacity="1" stop-color="rgb(98.410034%, 98.934937%, 99.385071%)" offset="0.179688"/><stop stop-opacity="1" stop-color="rgb(98.06366%, 98.703003%, 99.250793%)" offset="0.1875"/><stop stop-opacity="1" stop-color="rgb(97.717285%, 98.471069%, 99.118042%)" offset="0.195312"/><stop stop-opacity="1" stop-color="rgb(97.372437%, 98.239136%, 98.983765%)" offset="0.203125"/><stop stop-opacity="1" stop-color="rgb(97.026062%, 98.008728%, 98.849487%)" offset="0.210938"/><stop stop-opacity="1" stop-color="rgb(96.679688%, 97.776794%, 98.716736%)" offset="0.21875"/><stop stop-opacity="1" stop-color="rgb(96.334839%, 97.544861%, 98.582458%)" offset="0.226562"/><stop stop-opacity="1" stop-color="rgb(95.988464%, 97.312927%, 98.449707%)" offset="0.234375"/><stop stop-opacity="1" stop-color="rgb(95.64209%, 97.080994%, 98.31543%)" offset="0.242188"/><stop stop-opacity="1" stop-color="rgb(95.295715%, 96.84906%, 98.181152%)" offset="0.25"/><stop stop-opacity="1" stop-color="rgb(94.950867%, 96.617126%, 98.048401%)" offset="0.257813"/><stop stop-opacity="1" stop-color="rgb(94.604492%, 96.386719%, 97.914124%)" offset="0.265625"/><stop stop-opacity="1" stop-color="rgb(94.258118%, 96.154785%, 97.781372%)" offset="0.273438"/><stop stop-opacity="1" stop-color="rgb(93.913269%, 95.922852%, 97.647095%)" offset="0.28125"/><stop stop-opacity="1" stop-color="rgb(93.566895%, 95.690918%, 97.512817%)" offset="0.289063"/><stop stop-opacity="1" stop-color="rgb(93.22052%, 95.458984%, 97.380066%)" offset="0.296875"/><stop stop-opacity="1" stop-color="rgb(92.875671%, 95.227051%, 97.245789%)" offset="0.304688"/><stop stop-opacity="1" stop-color="rgb(92.529297%, 94.996643%, 97.113037%)" offset="0.3125"/><stop stop-opacity="1" stop-color="rgb(92.182922%, 94.764709%, 96.97876%)" offset="0.320313"/><stop stop-opacity="1" stop-color="rgb(91.836548%, 94.532776%, 96.844482%)" offset="0.328125"/><stop stop-opacity="1" stop-color="rgb(91.491699%, 94.300842%, 96.711731%)" offset="0.335938"/><stop stop-opacity="1" stop-color="rgb(91.145325%, 94.068909%, 96.577454%)" offset="0.34375"/><stop stop-opacity="1" stop-color="rgb(90.79895%, 93.836975%, 96.444702%)" offset="0.351562"/><stop stop-opacity="1" stop-color="rgb(90.454102%, 93.606567%, 96.310425%)" offset="0.359375"/><stop stop-opacity="1" stop-color="rgb(90.107727%, 93.374634%, 96.176147%)" offset="0.367188"/><stop stop-opacity="1" stop-color="rgb(89.761353%, 93.1427%, 96.043396%)" offset="0.375"/><stop stop-opacity="1" stop-color="rgb(89.416504%, 92.910767%, 95.909119%)" offset="0.382813"/><stop stop-opacity="1" stop-color="rgb(89.070129%, 92.678833%, 95.776367%)" offset="0.390625"/><stop stop-opacity="1" stop-color="rgb(88.723755%, 92.446899%, 95.64209%)" offset="0.398438"/><stop stop-opacity="1" stop-color="rgb(88.37738%, 92.214966%, 95.507812%)" offset="0.40625"/><stop stop-opacity="1" stop-color="rgb(88.032532%, 91.984558%, 95.375061%)" offset="0.414063"/><stop stop-opacity="1" stop-color="rgb(87.686157%, 91.752625%, 95.240784%)" offset="0.421875"/><stop stop-opacity="1" stop-color="rgb(87.339783%, 91.520691%, 95.108032%)" offset="0.429688"/><stop stop-opacity="1" stop-color="rgb(86.994934%, 91.288757%, 94.973755%)" offset="0.4375"/><stop stop-opacity="1" stop-color="rgb(86.64856%, 91.056824%, 94.839478%)" offset="0.445313"/><stop stop-opacity="1" stop-color="rgb(86.302185%, 90.82489%, 94.706726%)" offset="0.451121"/><stop stop-opacity="1" stop-color="rgb(86.129761%, 90.710449%, 94.639587%)" offset="0.453125"/><stop stop-opacity="1" stop-color="rgb(85.957336%, 90.594482%, 94.572449%)" offset="0.460938"/><stop stop-opacity="1" stop-color="rgb(85.610962%, 90.362549%, 94.439697%)" offset="0.46875"/><stop stop-opacity="1" stop-color="rgb(85.264587%, 90.130615%, 94.30542%)" offset="0.476562"/><stop stop-opacity="1" stop-color="rgb(84.918213%, 89.898682%, 94.171143%)" offset="0.484375"/><stop stop-opacity="1" stop-color="rgb(84.573364%, 89.666748%, 94.038391%)" offset="0.492188"/><stop stop-opacity="1" stop-color="rgb(84.22699%, 89.434814%, 93.904114%)" offset="0.5"/><stop stop-opacity="1" stop-color="rgb(83.880615%, 89.204407%, 93.771362%)" offset="0.507812"/><stop stop-opacity="1" stop-color="rgb(83.535767%, 88.972473%, 93.637085%)" offset="0.515625"/><stop stop-opacity="1" stop-color="rgb(83.189392%, 88.74054%, 93.502808%)" offset="0.523438"/><stop stop-opacity="1" stop-color="rgb(82.843018%, 88.508606%, 93.370056%)" offset="0.53125"/><stop stop-opacity="1" stop-color="rgb(82.498169%, 88.276672%, 93.235779%)" offset="0.539063"/><stop stop-opacity="1" stop-color="rgb(82.151794%, 88.044739%, 93.103027%)" offset="0.546875"/><stop stop-opacity="1" stop-color="rgb(81.80542%, 87.812805%, 92.96875%)" offset="0.548879"/><stop stop-opacity="1" stop-color="rgb(81.632996%, 87.698364%, 92.901611%)" offset="0.554688"/><stop stop-opacity="1" stop-color="rgb(81.459045%, 87.582397%, 92.834473%)" offset="0.5625"/><stop stop-opacity="1" stop-color="rgb(81.114197%, 87.350464%, 92.701721%)" offset="0.570313"/><stop stop-opacity="1" stop-color="rgb(80.767822%, 87.11853%, 92.567444%)" offset="0.578125"/><stop stop-opacity="1" stop-color="rgb(80.421448%, 86.886597%, 92.434692%)" offset="0.585938"/><stop stop-opacity="1" stop-color="rgb(80.076599%, 86.654663%, 92.300415%)" offset="0.59375"/><stop stop-opacity="1" stop-color="rgb(79.730225%, 86.422729%, 92.166138%)" offset="0.601563"/><stop stop-opacity="1" stop-color="rgb(79.38385%, 86.192322%, 92.033386%)" offset="0.609375"/><stop stop-opacity="1" stop-color="rgb(79.037476%, 85.960388%, 91.899109%)" offset="0.617188"/><stop stop-opacity="1" stop-color="rgb(78.692627%, 85.728455%, 91.766357%)" offset="0.625"/><stop stop-opacity="1" stop-color="rgb(78.346252%, 85.496521%, 91.63208%)" offset="0.632813"/><stop stop-opacity="1" stop-color="rgb(77.999878%, 85.264587%, 91.497803%)" offset="0.640625"/><stop stop-opacity="1" stop-color="rgb(77.655029%, 85.032654%, 91.365051%)" offset="0.648438"/><stop stop-opacity="1" stop-color="rgb(77.308655%, 84.802246%, 91.230774%)" offset="0.65625"/><stop stop-opacity="1" stop-color="rgb(76.96228%, 84.570312%, 91.098022%)" offset="0.664063"/><stop stop-opacity="1" stop-color="rgb(76.617432%, 84.338379%, 90.963745%)" offset="0.671875"/><stop stop-opacity="1" stop-color="rgb(76.271057%, 84.106445%, 90.829468%)" offset="0.679688"/><stop stop-opacity="1" stop-color="rgb(75.924683%, 83.874512%, 90.696716%)" offset="0.6875"/><stop stop-opacity="1" stop-color="rgb(75.578308%, 83.642578%, 90.562439%)" offset="0.695313"/><stop stop-opacity="1" stop-color="rgb(75.233459%, 83.410645%, 90.429688%)" offset="0.703125"/><stop stop-opacity="1" stop-color="rgb(74.887085%, 83.180237%, 90.29541%)" offset="0.710938"/><stop stop-opacity="1" stop-color="rgb(74.54071%, 82.948303%, 90.161133%)" offset="0.71875"/><stop stop-opacity="1" stop-color="rgb(74.195862%, 82.71637%, 90.028381%)" offset="0.726563"/><stop stop-opacity="1" stop-color="rgb(73.849487%, 82.484436%, 89.894104%)" offset="0.734375"/><stop stop-opacity="1" stop-color="rgb(73.503113%, 82.252502%, 89.761353%)" offset="0.742188"/><stop stop-opacity="1" stop-color="rgb(73.158264%, 82.020569%, 89.627075%)" offset="0.75"/><stop stop-opacity="1" stop-color="rgb(72.81189%, 81.790161%, 89.492798%)" offset="0.757813"/><stop stop-opacity="1" stop-color="rgb(72.465515%, 81.558228%, 89.360046%)" offset="0.765625"/><stop stop-opacity="1" stop-color="rgb(72.119141%, 81.326294%, 89.225769%)" offset="0.773438"/><stop stop-opacity="1" stop-color="rgb(71.774292%, 81.09436%, 89.093018%)" offset="0.78125"/><stop stop-opacity="1" stop-color="rgb(71.427917%, 80.862427%, 88.95874%)" offset="0.789063"/><stop stop-opacity="1" stop-color="rgb(71.081543%, 80.630493%, 88.824463%)" offset="0.796875"/><stop stop-opacity="1" stop-color="rgb(70.736694%, 80.400085%, 88.691711%)" offset="0.804688"/><stop stop-opacity="1" stop-color="rgb(70.39032%, 80.168152%, 88.557434%)" offset="0.8125"/><stop stop-opacity="1" stop-color="rgb(70.043945%, 79.936218%, 88.424683%)" offset="0.820313"/><stop stop-opacity="1" stop-color="rgb(69.699097%, 79.704285%, 88.290405%)" offset="0.828125"/><stop stop-opacity="1" stop-color="rgb(69.352722%, 79.472351%, 88.156128%)" offset="0.835938"/><stop stop-opacity="1" stop-color="rgb(69.006348%, 79.240417%, 88.023376%)" offset="0.84375"/><stop stop-opacity="1" stop-color="rgb(68.659973%, 79.008484%, 87.889099%)" offset="0.851563"/><stop stop-opacity="1" stop-color="rgb(68.315125%, 78.778076%, 87.756348%)" offset="0.859375"/><stop stop-opacity="1" stop-color="rgb(67.96875%, 78.546143%, 87.62207%)" offset="0.867188"/><stop stop-opacity="1" stop-color="rgb(67.622375%, 78.314209%, 87.487793%)" offset="0.875"/><stop stop-opacity="1" stop-color="rgb(67.277527%, 78.082275%, 87.355042%)" offset="0.882813"/><stop stop-opacity="1" stop-color="rgb(66.931152%, 77.850342%, 87.220764%)" offset="0.890625"/><stop stop-opacity="1" stop-color="rgb(66.584778%, 77.618408%, 87.088013%)" offset="0.898438"/><stop stop-opacity="1" stop-color="rgb(66.239929%, 77.388%, 86.953735%)" offset="0.90625"/><stop stop-opacity="1" stop-color="rgb(65.893555%, 77.156067%, 86.819458%)" offset="0.914063"/><stop stop-opacity="1" stop-color="rgb(65.54718%, 76.924133%, 86.686707%)" offset="0.921875"/><stop stop-opacity="1" stop-color="rgb(65.200806%, 76.6922%, 86.552429%)" offset="0.929688"/><stop stop-opacity="1" stop-color="rgb(64.855957%, 76.460266%, 86.419678%)" offset="0.9375"/><stop stop-opacity="1" stop-color="rgb(64.509583%, 76.228333%, 86.2854%)" offset="0.945313"/><stop stop-opacity="1" stop-color="rgb(64.163208%, 75.997925%, 86.151123%)" offset="0.953125"/><stop stop-opacity="1" stop-color="rgb(63.818359%, 75.765991%, 86.018372%)" offset="0.960938"/><stop stop-opacity="1" stop-color="rgb(63.471985%, 75.534058%, 85.884094%)" offset="0.96875"/><stop stop-opacity="1" stop-color="rgb(63.12561%, 75.302124%, 85.751343%)" offset="0.976562"/><stop stop-opacity="1" stop-color="rgb(62.780762%, 75.07019%, 85.617065%)" offset="0.984375"/><stop stop-opacity="1" stop-color="rgb(62.434387%, 74.838257%, 85.482788%)" offset="0.992188"/><stop stop-opacity="1" stop-color="rgb(62.088013%, 74.606323%, 85.350037%)" offset="1"/></linearGradient><clipPath id="4eee2c2949"><rect x="0" width="1066" y="0" height="634"/></clipPath><mask id="39f0cba164"><g filter="url(#2b7d9ad890)"><rect x="-144" width="1728" fill="#000000" y="-80.999999" height="971.999992" fill-opacity="0.65"/></g></mask><clipPath id="eacf95c668"><path d="M 10 0 L 1014 0 L 1014 810 L 10 810 Z M 10 0 " clip-rule="nonzero"/></clipPath><clipPath id="6d3f330beb"><path d="M 20.667969 -56.1875 L 1176.984375 -35.566406 L 1156.359375 1120.75 L 0.046875 1100.128906 Z M 20.667969 -56.1875 " clip-rule="nonzero"/></clipPath><clipPath id="0ee53d11d2"><path d="M 20.667969 -56.1875 L 1176.984375 -35.566406 L 1156.359375 1120.75 L 0.046875 1100.128906 Z M 20.667969 -56.1875 " clip-rule="nonzero"/></clipPath><clipPath id="ff2704a450"><path d="M 1166.335938 542.417969 C 1166.167969 551.875 1165.765625 561.324219 1165.132812 570.765625 C 1164.5 580.203125 1163.636719 589.625 1162.542969 599.019531 C 1161.445312 608.417969 1160.121094 617.78125 1158.566406 627.113281 C 1157.011719 636.445312 1155.230469 645.734375 1153.21875 654.980469 C 1151.207031 664.222656 1148.972656 673.414062 1146.507812 682.546875 C 1144.046875 691.683594 1141.363281 700.75 1138.457031 709.753906 C 1135.546875 718.757812 1132.421875 727.683594 1129.074219 736.53125 C 1125.730469 745.382812 1122.167969 754.144531 1118.394531 762.820312 C 1114.617188 771.492188 1110.632812 780.070312 1106.433594 788.550781 C 1102.238281 797.027344 1097.835938 805.398438 1093.226562 813.660156 C 1088.621094 821.925781 1083.8125 830.070312 1078.804688 838.097656 C 1073.796875 846.121094 1068.59375 854.023438 1063.199219 861.792969 C 1057.804688 869.5625 1052.222656 877.199219 1046.449219 884.695312 C 1040.679688 892.191406 1034.730469 899.542969 1028.597656 906.75 C 1022.46875 913.953125 1016.164062 921.003906 1009.6875 927.898438 C 1003.207031 934.796875 996.566406 941.527344 989.757812 948.097656 C 982.949219 954.667969 975.984375 961.066406 968.863281 967.292969 C 961.742188 973.519531 954.46875 979.570312 947.050781 985.441406 C 939.632812 991.308594 932.074219 996.996094 924.375 1002.492188 C 916.675781 1007.992188 908.847656 1013.300781 900.890625 1018.414062 C 892.929688 1023.53125 884.851562 1028.445312 876.652344 1033.164062 C 868.449219 1037.882812 860.140625 1042.398438 851.71875 1046.707031 C 843.296875 1051.019531 834.773438 1055.121094 826.152344 1059.011719 C 817.527344 1062.902344 808.8125 1066.582031 800.011719 1070.046875 C 791.207031 1073.507812 782.324219 1076.753906 773.359375 1079.78125 C 764.398438 1082.8125 755.363281 1085.617188 746.265625 1088.203125 C 737.164062 1090.785156 728.003906 1093.144531 718.789062 1095.28125 C 709.570312 1097.414062 700.308594 1099.324219 690.996094 1101.003906 C 681.6875 1102.683594 672.339844 1104.132812 662.960938 1105.355469 C 653.578125 1106.574219 644.171875 1107.566406 634.742188 1108.324219 C 625.3125 1109.082031 615.867188 1109.609375 606.414062 1109.90625 C 596.957031 1110.203125 587.5 1110.265625 578.039062 1110.097656 C 568.578125 1109.929688 559.128906 1109.527344 549.691406 1108.894531 C 540.25 1108.261719 530.832031 1107.398438 521.4375 1106.304688 C 512.039062 1105.207031 502.675781 1103.882812 493.34375 1102.328125 C 484.011719 1100.773438 474.722656 1098.992188 465.476562 1096.980469 C 456.234375 1094.96875 447.042969 1092.734375 437.910156 1090.269531 C 428.773438 1087.808594 419.703125 1085.125 410.703125 1082.21875 C 401.699219 1079.308594 392.773438 1076.183594 383.921875 1072.835938 C 375.074219 1069.492188 366.3125 1065.929688 357.636719 1062.15625 C 348.960938 1058.378906 340.386719 1054.394531 331.90625 1050.195312 C 323.429688 1046 315.058594 1041.597656 306.792969 1036.988281 C 298.53125 1032.382812 290.386719 1027.574219 282.359375 1022.566406 C 274.332031 1017.558594 266.433594 1012.355469 258.664062 1006.960938 C 250.890625 1001.566406 243.257812 995.984375 235.761719 990.210938 C 228.261719 984.441406 220.914062 978.492188 213.707031 972.359375 C 206.503906 966.230469 199.453125 959.925781 192.554688 953.449219 C 185.660156 946.96875 178.929688 940.328125 172.359375 933.519531 C 165.789062 926.710938 159.390625 919.746094 153.164062 912.625 C 146.9375 905.503906 140.886719 898.230469 135.015625 890.8125 C 129.148438 883.394531 123.460938 875.835938 117.960938 868.136719 C 112.464844 860.4375 107.15625 852.609375 102.039062 844.652344 C 96.925781 836.691406 92.007812 828.613281 87.292969 820.414062 C 82.574219 812.210938 78.058594 803.902344 73.75 795.480469 C 69.4375 787.058594 65.335938 778.535156 61.445312 769.914062 C 57.554688 761.289062 53.875 752.574219 50.410156 743.773438 C 46.945312 734.96875 43.703125 726.085938 40.671875 717.121094 C 37.644531 708.160156 34.839844 699.125 32.253906 690.027344 C 29.671875 680.925781 27.3125 671.765625 25.175781 662.550781 C 23.042969 653.332031 21.132812 644.070312 19.453125 634.757812 C 17.773438 625.449219 16.324219 616.101562 15.101562 606.722656 C 13.882812 597.339844 12.890625 587.933594 12.132812 578.503906 C 11.371094 569.074219 10.84375 559.628906 10.550781 550.175781 C 10.253906 540.71875 10.191406 531.261719 10.359375 521.800781 C 10.527344 512.339844 10.929688 502.890625 11.5625 493.453125 C 12.195312 484.011719 13.058594 474.59375 14.152344 465.199219 C 15.246094 455.800781 16.574219 446.4375 18.128906 437.105469 C 19.683594 427.773438 21.464844 418.484375 23.476562 409.238281 C 25.488281 399.996094 27.722656 390.804688 30.1875 381.671875 C 32.648438 372.535156 35.332031 363.464844 38.238281 354.464844 C 41.148438 345.460938 44.273438 336.535156 47.617188 327.683594 C 50.964844 318.835938 54.523438 310.074219 58.300781 301.398438 C 62.078125 292.722656 66.0625 284.148438 70.257812 275.667969 C 74.457031 267.191406 78.859375 258.820312 83.464844 250.554688 C 88.074219 242.292969 92.882812 234.148438 97.890625 226.121094 C 102.898438 218.09375 108.097656 210.195312 113.496094 202.425781 C 118.890625 194.652344 124.472656 187.019531 130.242188 179.523438 C 136.015625 172.023438 141.964844 164.675781 148.097656 157.46875 C 154.226562 150.265625 160.53125 143.214844 167.007812 136.316406 C 173.488281 129.421875 180.128906 122.691406 186.9375 116.121094 C 193.746094 109.550781 200.710938 103.152344 207.832031 96.925781 C 214.953125 90.699219 222.226562 84.648438 229.644531 78.777344 C 237.0625 72.910156 244.621094 67.222656 252.320312 61.722656 C 260.019531 56.226562 267.847656 50.917969 275.804688 45.800781 C 283.765625 40.6875 291.84375 35.769531 300.042969 31.054688 C 308.242188 26.335938 316.554688 21.820312 324.976562 17.511719 C 333.398438 13.199219 341.921875 9.097656 350.542969 5.207031 C 359.167969 1.316406 367.878906 -2.363281 376.683594 -5.828125 C 385.488281 -9.292969 394.371094 -12.535156 403.335938 -15.566406 C 412.296875 -18.59375 421.328125 -21.398438 430.429688 -23.984375 C 439.53125 -26.566406 448.691406 -28.925781 457.90625 -31.0625 C 467.125 -33.195312 476.386719 -35.105469 485.699219 -36.785156 C 495.007812 -38.464844 504.355469 -39.914062 513.734375 -41.136719 C 523.117188 -42.355469 532.523438 -43.347656 541.953125 -44.105469 C 551.382812 -44.867188 560.828125 -45.394531 570.28125 -45.6875 C 579.738281 -45.984375 589.195312 -46.046875 598.65625 -45.878906 C 608.113281 -45.710938 617.5625 -45.308594 627.003906 -44.675781 C 636.441406 -44.042969 645.863281 -43.179688 655.257812 -42.085938 C 664.65625 -40.992188 674.019531 -39.664062 683.351562 -38.109375 C 692.683594 -36.554688 701.972656 -34.773438 711.21875 -32.761719 C 720.460938 -30.75 729.652344 -28.515625 738.785156 -26.050781 C 747.921875 -23.589844 756.988281 -20.90625 765.992188 -18 C 774.996094 -15.089844 783.921875 -11.964844 792.769531 -8.621094 C 801.621094 -5.273438 810.382812 -1.714844 819.058594 2.0625 C 827.730469 5.839844 836.308594 9.824219 844.789062 14.019531 C 853.265625 18.21875 861.636719 22.621094 869.898438 27.226562 C 878.164062 31.835938 886.308594 36.644531 894.335938 41.652344 C 902.359375 46.660156 910.261719 51.859375 918.03125 57.257812 C 925.800781 62.652344 933.4375 68.234375 940.933594 74.003906 C 948.429688 79.777344 955.78125 85.726562 962.988281 91.859375 C 970.191406 97.988281 977.242188 104.292969 984.136719 110.769531 C 991.035156 117.25 997.765625 123.890625 1004.335938 130.699219 C 1010.90625 137.507812 1017.304688 144.472656 1023.53125 151.59375 C 1029.757812 158.714844 1035.808594 165.988281 1041.679688 173.40625 C 1047.546875 180.824219 1053.234375 188.382812 1058.730469 196.082031 C 1064.230469 203.78125 1069.539062 211.609375 1074.652344 219.566406 C 1079.769531 227.527344 1084.683594 235.605469 1089.402344 243.804688 C 1094.121094 252.003906 1098.636719 260.316406 1102.945312 268.738281 C 1107.257812 277.160156 1111.359375 285.683594 1115.25 294.304688 C 1119.140625 302.929688 1122.820312 311.640625 1126.285156 320.445312 C 1129.746094 329.25 1132.992188 338.132812 1136.019531 347.097656 C 1139.050781 356.058594 1141.855469 365.089844 1144.441406 374.191406 C 1147.023438 383.292969 1149.382812 392.453125 1151.519531 401.667969 C 1153.652344 410.886719 1155.5625 420.148438 1157.242188 429.460938 C 1158.921875 438.769531 1160.371094 448.117188 1161.59375 457.496094 C 1162.8125 466.878906 1163.804688 476.285156 1164.5625 485.714844 C 1165.320312 495.144531 1165.847656 504.589844 1166.144531 514.042969 C 1166.441406 523.5 1166.503906 532.957031 1166.335938 542.417969 Z M 1166.335938 542.417969 " clip-rule="nonzero"/></clipPath><linearGradient x1="0.0124969" gradientTransform="matrix(1155.976238, 20.616397, -20.616397, 1155.976238, 20.667523, -56.187155)" y1="0.0123744" x2="0.815091" gradientUnits="userSpaceOnUse" y2="0.8071" id="96094123c7"><stop stop-opacity="1" stop-color="rgb(99.475098%, 99.647522%, 99.797058%)" offset="0"/><stop stop-opacity="1" stop-color="rgb(99.342346%, 99.559021%, 99.745178%)" offset="0.0078125"/><stop stop-opacity="1" stop-color="rgb(99.078369%, 99.383545%, 99.642944%)" offset="0.015625"/><stop stop-opacity="1" stop-color="rgb(98.815918%, 99.206543%, 99.542236%)" offset="0.0234375"/><stop stop-opacity="1" stop-color="rgb(98.551941%, 99.029541%, 99.440002%)" offset="0.03125"/><stop stop-opacity="1" stop-color="rgb(98.28949%, 98.854065%, 99.337769%)" offset="0.0390625"/><stop stop-opacity="1" stop-color="rgb(98.025513%, 98.677063%, 99.237061%)" offset="0.046875"/><stop stop-opacity="1" stop-color="rgb(97.763062%, 98.501587%, 99.134827%)" offset="0.0546875"/><stop stop-opacity="1" stop-color="rgb(97.499084%, 98.324585%, 99.032593%)" offset="0.0625"/><stop stop-opacity="1" stop-color="rgb(97.236633%, 98.149109%, 98.931885%)" offset="0.0703125"/><stop stop-opacity="1" stop-color="rgb(96.972656%, 97.972107%, 98.829651%)" offset="0.078125"/><stop stop-opacity="1" stop-color="rgb(96.710205%, 97.795105%, 98.727417%)" offset="0.0859375"/><stop stop-opacity="1" stop-color="rgb(96.446228%, 97.619629%, 98.625183%)" offset="0.09375"/><stop stop-opacity="1" stop-color="rgb(96.182251%, 97.442627%, 98.524475%)" offset="0.101562"/><stop stop-opacity="1" stop-color="rgb(95.9198%, 97.267151%, 98.422241%)" offset="0.109375"/><stop stop-opacity="1" stop-color="rgb(95.655823%, 97.090149%, 98.320007%)" offset="0.117188"/><stop stop-opacity="1" stop-color="rgb(95.393372%, 96.914673%, 98.219299%)" offset="0.125"/><stop stop-opacity="1" stop-color="rgb(95.129395%, 96.737671%, 98.117065%)" offset="0.132812"/><stop stop-opacity="1" stop-color="rgb(94.866943%, 96.560669%, 98.014832%)" offset="0.140625"/><stop stop-opacity="1" stop-color="rgb(94.602966%, 96.385193%, 97.914124%)" offset="0.148438"/><stop stop-opacity="1" stop-color="rgb(94.340515%, 96.208191%, 97.81189%)" offset="0.15625"/><stop stop-opacity="1" stop-color="rgb(94.076538%, 96.032715%, 97.709656%)" offset="0.164063"/><stop stop-opacity="1" stop-color="rgb(93.812561%, 95.855713%, 97.608948%)" offset="0.171875"/><stop stop-opacity="1" stop-color="rgb(93.55011%, 95.680237%, 97.506714%)" offset="0.179688"/><stop stop-opacity="1" stop-color="rgb(93.286133%, 95.503235%, 97.40448%)" offset="0.1875"/><stop stop-opacity="1" stop-color="rgb(93.023682%, 95.326233%, 97.303772%)" offset="0.195313"/><stop stop-opacity="1" stop-color="rgb(92.759705%, 95.150757%, 97.201538%)" offset="0.203125"/><stop stop-opacity="1" stop-color="rgb(92.497253%, 94.973755%, 97.099304%)" offset="0.210938"/><stop stop-opacity="1" stop-color="rgb(92.233276%, 94.798279%, 96.998596%)" offset="0.21875"/><stop stop-opacity="1" stop-color="rgb(91.970825%, 94.621277%, 96.896362%)" offset="0.226562"/><stop stop-opacity="1" stop-color="rgb(91.706848%, 94.445801%, 96.794128%)" offset="0.234375"/><stop stop-opacity="1" stop-color="rgb(91.444397%, 94.268799%, 96.69342%)" offset="0.242188"/><stop stop-opacity="1" stop-color="rgb(91.18042%, 94.091797%, 96.591187%)" offset="0.25"/><stop stop-opacity="1" stop-color="rgb(90.916443%, 93.916321%, 96.488953%)" offset="0.257812"/><stop stop-opacity="1" stop-color="rgb(90.653992%, 93.739319%, 96.388245%)" offset="0.265625"/><stop stop-opacity="1" stop-color="rgb(90.390015%, 93.563843%, 96.286011%)" offset="0.273438"/><stop stop-opacity="1" stop-color="rgb(90.127563%, 93.386841%, 96.183777%)" offset="0.28125"/><stop stop-opacity="1" stop-color="rgb(89.863586%, 93.211365%, 96.083069%)" offset="0.289063"/><stop stop-opacity="1" stop-color="rgb(89.601135%, 93.034363%, 95.980835%)" offset="0.296875"/><stop stop-opacity="1" stop-color="rgb(89.337158%, 92.857361%, 95.878601%)" offset="0.304688"/><stop stop-opacity="1" stop-color="rgb(89.074707%, 92.681885%, 95.777893%)" offset="0.3125"/><stop stop-opacity="1" stop-color="rgb(88.81073%, 92.504883%, 95.675659%)" offset="0.320312"/><stop stop-opacity="1" stop-color="rgb(88.546753%, 92.329407%, 95.573425%)" offset="0.328125"/><stop stop-opacity="1" stop-color="rgb(88.284302%, 92.152405%, 95.472717%)" offset="0.335937"/><stop stop-opacity="1" stop-color="rgb(88.020325%, 91.976929%, 95.370483%)" offset="0.34375"/><stop stop-opacity="1" stop-color="rgb(87.757874%, 91.799927%, 95.26825%)" offset="0.351563"/><stop stop-opacity="1" stop-color="rgb(87.493896%, 91.622925%, 95.167542%)" offset="0.359375"/><stop stop-opacity="1" stop-color="rgb(87.231445%, 91.447449%, 95.065308%)" offset="0.367188"/><stop stop-opacity="1" stop-color="rgb(86.967468%, 91.270447%, 94.963074%)" offset="0.375"/><stop stop-opacity="1" stop-color="rgb(86.705017%, 91.094971%, 94.86084%)" offset="0.382812"/><stop stop-opacity="1" stop-color="rgb(86.44104%, 90.917969%, 94.760132%)" offset="0.390625"/><stop stop-opacity="1" stop-color="rgb(86.178589%, 90.742493%, 94.657898%)" offset="0.398438"/><stop stop-opacity="1" stop-color="rgb(85.914612%, 90.565491%, 94.555664%)" offset="0.40625"/><stop stop-opacity="1" stop-color="rgb(85.650635%, 90.388489%, 94.454956%)" offset="0.414062"/><stop stop-opacity="1" stop-color="rgb(85.388184%, 90.213013%, 94.352722%)" offset="0.421875"/><stop stop-opacity="1" stop-color="rgb(85.124207%, 90.036011%, 94.250488%)" offset="0.429687"/><stop stop-opacity="1" stop-color="rgb(84.861755%, 89.860535%, 94.14978%)" offset="0.4375"/><stop stop-opacity="1" stop-color="rgb(84.597778%, 89.683533%, 94.047546%)" offset="0.445313"/><stop stop-opacity="1" stop-color="rgb(84.335327%, 89.508057%, 93.945312%)" offset="0.44601"/><stop stop-opacity="1" stop-color="rgb(84.204102%, 89.419556%, 93.894958%)" offset="0.453125"/><stop stop-opacity="1" stop-color="rgb(84.07135%, 89.331055%, 93.844604%)" offset="0.460938"/><stop stop-opacity="1" stop-color="rgb(83.808899%, 89.154053%, 93.742371%)" offset="0.46875"/><stop stop-opacity="1" stop-color="rgb(83.544922%, 88.978577%, 93.640137%)" offset="0.476563"/><stop stop-opacity="1" stop-color="rgb(83.280945%, 88.801575%, 93.539429%)" offset="0.484375"/><stop stop-opacity="1" stop-color="rgb(83.018494%, 88.626099%, 93.437195%)" offset="0.492188"/><stop stop-opacity="1" stop-color="rgb(82.754517%, 88.449097%, 93.334961%)" offset="0.5"/><stop stop-opacity="1" stop-color="rgb(82.492065%, 88.273621%, 93.234253%)" offset="0.507812"/><stop stop-opacity="1" stop-color="rgb(82.228088%, 88.096619%, 93.132019%)" offset="0.515625"/><stop stop-opacity="1" stop-color="rgb(81.965637%, 87.919617%, 93.029785%)" offset="0.523438"/><stop stop-opacity="1" stop-color="rgb(81.70166%, 87.744141%, 92.929077%)" offset="0.53125"/><stop stop-opacity="1" stop-color="rgb(81.439209%, 87.567139%, 92.826843%)" offset="0.539062"/><stop stop-opacity="1" stop-color="rgb(81.175232%, 87.391663%, 92.724609%)" offset="0.546875"/><stop stop-opacity="1" stop-color="rgb(80.912781%, 87.214661%, 92.623901%)" offset="0.55399"/><stop stop-opacity="1" stop-color="rgb(80.781555%, 87.127686%, 92.573547%)" offset="0.554687"/><stop stop-opacity="1" stop-color="rgb(80.648804%, 87.039185%, 92.521667%)" offset="0.5625"/><stop stop-opacity="1" stop-color="rgb(80.384827%, 86.862183%, 92.419434%)" offset="0.570312"/><stop stop-opacity="1" stop-color="rgb(80.122375%, 86.685181%, 92.318726%)" offset="0.578125"/><stop stop-opacity="1" stop-color="rgb(79.858398%, 86.509705%, 92.216492%)" offset="0.585938"/><stop stop-opacity="1" stop-color="rgb(79.595947%, 86.332703%, 92.114258%)" offset="0.59375"/><stop stop-opacity="1" stop-color="rgb(79.33197%, 86.157227%, 92.01355%)" offset="0.601562"/><stop stop-opacity="1" stop-color="rgb(79.069519%, 85.980225%, 91.911316%)" offset="0.609375"/><stop stop-opacity="1" stop-color="rgb(78.805542%, 85.804749%, 91.809082%)" offset="0.617188"/><stop stop-opacity="1" stop-color="rgb(78.543091%, 85.627747%, 91.708374%)" offset="0.625"/><stop stop-opacity="1" stop-color="rgb(78.279114%, 85.450745%, 91.60614%)" offset="0.632812"/><stop stop-opacity="1" stop-color="rgb(78.015137%, 85.275269%, 91.503906%)" offset="0.640625"/><stop stop-opacity="1" stop-color="rgb(77.752686%, 85.098267%, 91.401672%)" offset="0.648437"/><stop stop-opacity="1" stop-color="rgb(77.488708%, 84.922791%, 91.300964%)" offset="0.65625"/><stop stop-opacity="1" stop-color="rgb(77.226257%, 84.745789%, 91.19873%)" offset="0.664062"/><stop stop-opacity="1" stop-color="rgb(76.96228%, 84.570312%, 91.096497%)" offset="0.671875"/><stop stop-opacity="1" stop-color="rgb(76.699829%, 84.393311%, 90.995789%)" offset="0.679687"/><stop stop-opacity="1" stop-color="rgb(76.435852%, 84.216309%, 90.893555%)" offset="0.6875"/><stop stop-opacity="1" stop-color="rgb(76.173401%, 84.040833%, 90.791321%)" offset="0.695313"/><stop stop-opacity="1" stop-color="rgb(75.909424%, 83.863831%, 90.690613%)" offset="0.703125"/><stop stop-opacity="1" stop-color="rgb(75.646973%, 83.688354%, 90.588379%)" offset="0.710938"/><stop stop-opacity="1" stop-color="rgb(75.382996%, 83.511353%, 90.486145%)" offset="0.71875"/><stop stop-opacity="1" stop-color="rgb(75.119019%, 83.335876%, 90.385437%)" offset="0.726563"/><stop stop-opacity="1" stop-color="rgb(74.856567%, 83.158875%, 90.283203%)" offset="0.734375"/><stop stop-opacity="1" stop-color="rgb(74.59259%, 82.981873%, 90.180969%)" offset="0.742188"/><stop stop-opacity="1" stop-color="rgb(74.330139%, 82.806396%, 90.080261%)" offset="0.75"/><stop stop-opacity="1" stop-color="rgb(74.066162%, 82.629395%, 89.978027%)" offset="0.757813"/><stop stop-opacity="1" stop-color="rgb(73.803711%, 82.453918%, 89.875793%)" offset="0.765625"/><stop stop-opacity="1" stop-color="rgb(73.539734%, 82.276917%, 89.775085%)" offset="0.773438"/><stop stop-opacity="1" stop-color="rgb(73.277283%, 82.10144%, 89.672852%)" offset="0.78125"/><stop stop-opacity="1" stop-color="rgb(73.013306%, 81.924438%, 89.570618%)" offset="0.789062"/><stop stop-opacity="1" stop-color="rgb(72.749329%, 81.747437%, 89.46991%)" offset="0.796875"/><stop stop-opacity="1" stop-color="rgb(72.486877%, 81.57196%, 89.367676%)" offset="0.804688"/><stop stop-opacity="1" stop-color="rgb(72.2229%, 81.394958%, 89.265442%)" offset="0.8125"/><stop stop-opacity="1" stop-color="rgb(71.960449%, 81.219482%, 89.164734%)" offset="0.820312"/><stop stop-opacity="1" stop-color="rgb(71.696472%, 81.04248%, 89.0625%)" offset="0.828125"/><stop stop-opacity="1" stop-color="rgb(71.434021%, 80.865479%, 88.960266%)" offset="0.835938"/><stop stop-opacity="1" stop-color="rgb(71.170044%, 80.690002%, 88.859558%)" offset="0.84375"/><stop stop-opacity="1" stop-color="rgb(70.907593%, 80.513%, 88.757324%)" offset="0.851562"/><stop stop-opacity="1" stop-color="rgb(70.643616%, 80.337524%, 88.65509%)" offset="0.859375"/><stop stop-opacity="1" stop-color="rgb(70.381165%, 80.160522%, 88.554382%)" offset="0.867187"/><stop stop-opacity="1" stop-color="rgb(70.117188%, 79.985046%, 88.452148%)" offset="0.875"/><stop stop-opacity="1" stop-color="rgb(69.85321%, 79.808044%, 88.349915%)" offset="0.882813"/><stop stop-opacity="1" stop-color="rgb(69.590759%, 79.631042%, 88.249207%)" offset="0.890625"/><stop stop-opacity="1" stop-color="rgb(69.326782%, 79.455566%, 88.146973%)" offset="0.898438"/><stop stop-opacity="1" stop-color="rgb(69.064331%, 79.278564%, 88.044739%)" offset="0.90625"/><stop stop-opacity="1" stop-color="rgb(68.800354%, 79.103088%, 87.942505%)" offset="0.914063"/><stop stop-opacity="1" stop-color="rgb(68.537903%, 78.926086%, 87.841797%)" offset="0.921875"/><stop stop-opacity="1" stop-color="rgb(68.273926%, 78.75061%, 87.739563%)" offset="0.929688"/><stop stop-opacity="1" stop-color="rgb(68.011475%, 78.573608%, 87.637329%)" offset="0.9375"/><stop stop-opacity="1" stop-color="rgb(67.747498%, 78.396606%, 87.536621%)" offset="0.945313"/><stop stop-opacity="1" stop-color="rgb(67.483521%, 78.22113%, 87.434387%)" offset="0.953125"/><stop stop-opacity="1" stop-color="rgb(67.221069%, 78.044128%, 87.332153%)" offset="0.960938"/><stop stop-opacity="1" stop-color="rgb(66.957092%, 77.868652%, 87.231445%)" offset="0.96875"/><stop stop-opacity="1" stop-color="rgb(66.694641%, 77.69165%, 87.129211%)" offset="0.976562"/><stop stop-opacity="1" stop-color="rgb(66.430664%, 77.516174%, 87.026978%)" offset="0.984375"/><stop stop-opacity="1" stop-color="rgb(66.168213%, 77.339172%, 86.92627%)" offset="0.992188"/><stop stop-opacity="1" stop-color="rgb(65.904236%, 77.16217%, 86.824036%)" offset="1"/></linearGradient><clipPath id="0819b247a8"><rect x="0" width="1014" y="0" height="810"/></clipPath></defs><rect x="-144" width="1728" fill="#ffffff" y="-80.999999" height="971.999992" fill-opacity="1"/><rect x="-144" width="1728" fill="#ffffff" y="-80.999999" height="971.999992" fill-opacity="1"/><g mask="url(#3403eea428)"><g transform="matrix(1, 0, 0, 1, 118, 0.000000000000039746)"><g clip-path="url(#4eee2c2949)"><g clip-path="url(#66b3969998)"><g clip-path="url(#3a9bf32d68)"><g clip-path="url(#4d02bb916a)"><g clip-path="url(#60e325f2d8)"><path fill="url(#5043d66cce)" d="M 228.699219 789.636719 L 1116.941406 446.003906 L 837.277344 -276.882812 L -50.964844 66.753906 Z M 228.699219 789.636719 " fill-rule="nonzero"/></g></g></g></g></g></g></g><g mask="url(#39f0cba164)"><g transform="matrix(1, 0, 0, 1, 426, 0.000000000000039746)"><g clip-path="url(#0819b247a8)"><g clip-path="url(#eacf95c668)"><g clip-path="url(#6d3f330beb)"><g clip-path="url(#0ee53d11d2)"><g clip-path="url(#ff2704a450)"><path fill="url(#96094123c7)" d="M 10.511719 -17.898438 L -4.25 809.742188 L 1013.679688 827.898438 L 1028.441406 0.257812 Z M 10.511719 -17.898438 " fill-rule="nonzero"/></g></g></g></g></g></g></g></svg>