<svg xmlns="http://www.w3.org/2000/svg" xmlns:xlink="http://www.w3.org/1999/xlink" width="1920" zoomAndPan="magnify" viewBox="0 0 1440 809.999993" height="1080" preserveAspectRatio="xMidYMid meet" version="1.0"><defs><filter x="0%" y="0%" width="100%" height="100%" id="d68ff41398"><feColorMatrix values="0 0 0 0 1 0 0 0 0 1 0 0 0 0 1 0 0 0 1 0" color-interpolation-filters="sRGB"/></filter><mask id="0d38b05ec9"><g filter="url(#d68ff41398)"><rect x="-144" width="1728" fill="#000000" y="-80.999999" height="971.999992" fill-opacity="0.65"/></g></mask><clipPath id="df6b167d43"><path d="M 10 0 L 1010 0 L 1010 810 L 10 810 Z M 10 0 " clip-rule="nonzero"/></clipPath><clipPath id="988772de29"><path d="M 20.820312 -305.417969 L 1177.136719 -284.796875 L 1156.515625 871.519531 L 0.199219 850.898438 Z M 20.820312 -305.417969 " clip-rule="nonzero"/></clipPath><clipPath id="d233d33ba3"><path d="M 20.820312 -305.417969 L 1177.136719 -284.796875 L 1156.515625 871.519531 L 0.199219 850.898438 Z M 20.820312 -305.417969 " clip-rule="nonzero"/></clipPath><clipPath id="7e7de99026"><path d="M 1166.488281 293.1875 C 1166.320312 302.644531 1165.921875 312.09375 1165.289062 321.535156 C 1164.65625 330.972656 1163.789062 340.394531 1162.695312 349.789062 C 1161.601562 359.1875 1160.277344 368.550781 1158.722656 377.882812 C 1157.167969 387.214844 1155.382812 396.503906 1153.371094 405.75 C 1151.363281 414.992188 1149.125 424.183594 1146.664062 433.316406 C 1144.199219 442.453125 1141.515625 451.519531 1138.609375 460.523438 C 1135.703125 469.527344 1132.574219 478.453125 1129.230469 487.300781 C 1125.882812 496.152344 1122.324219 504.914062 1118.546875 513.589844 C 1114.773438 522.261719 1110.785156 530.839844 1106.589844 539.320312 C 1102.390625 547.796875 1097.988281 556.167969 1093.382812 564.429688 C 1088.773438 572.695312 1083.964844 580.839844 1078.957031 588.863281 C 1073.949219 596.890625 1068.75 604.789062 1063.355469 612.5625 C 1057.957031 620.332031 1052.375 627.96875 1046.605469 635.464844 C 1040.835938 642.960938 1034.882812 650.3125 1028.753906 657.519531 C 1022.621094 664.722656 1016.316406 671.773438 1009.839844 678.667969 C 1003.363281 685.566406 996.71875 692.296875 989.910156 698.867188 C 983.101562 705.4375 976.136719 711.835938 969.015625 718.0625 C 961.894531 724.289062 954.625 730.339844 947.203125 736.207031 C 939.785156 742.078125 932.226562 747.765625 924.527344 753.261719 C 916.832031 758.761719 909 764.070312 901.042969 769.183594 C 893.085938 774.300781 885.003906 779.214844 876.804688 783.933594 C 868.605469 788.652344 860.292969 793.167969 851.871094 797.476562 C 843.449219 801.789062 834.925781 805.890625 826.304688 809.78125 C 817.679688 813.671875 808.96875 817.351562 800.164062 820.8125 C 791.359375 824.277344 782.476562 827.523438 773.515625 830.550781 C 764.550781 833.582031 755.519531 836.386719 746.417969 838.972656 C 737.316406 841.554688 728.160156 843.914062 718.941406 846.050781 C 709.726562 848.183594 700.460938 850.089844 691.152344 851.773438 C 681.839844 853.453125 672.496094 854.902344 663.113281 856.125 C 653.730469 857.34375 644.324219 858.335938 634.894531 859.09375 C 625.464844 859.851562 616.023438 860.378906 606.566406 860.675781 C 597.109375 860.972656 587.652344 861.035156 578.191406 860.867188 C 568.734375 860.699219 559.285156 860.296875 549.84375 859.664062 C 540.40625 859.03125 530.988281 858.167969 521.589844 857.074219 C 512.191406 855.976562 502.828125 854.652344 493.496094 853.097656 C 484.164062 851.542969 474.875 849.761719 465.632812 847.75 C 456.386719 845.738281 447.195312 843.503906 438.0625 841.039062 C 428.925781 838.578125 419.859375 835.894531 410.855469 832.984375 C 401.851562 830.078125 392.925781 826.953125 384.078125 823.605469 C 375.226562 820.261719 366.464844 816.699219 357.792969 812.925781 C 349.117188 809.148438 340.539062 805.164062 332.0625 800.964844 C 323.582031 796.769531 315.210938 792.367188 306.949219 787.757812 C 298.6875 783.152344 290.542969 778.34375 282.515625 773.335938 C 274.488281 768.328125 266.589844 763.125 258.816406 757.730469 C 251.046875 752.335938 243.410156 746.753906 235.914062 740.980469 C 228.417969 735.210938 221.066406 729.261719 213.859375 723.128906 C 206.65625 717 199.605469 710.695312 192.710938 704.21875 C 185.816406 697.738281 179.082031 691.097656 172.511719 684.289062 C 165.945312 677.480469 159.546875 670.515625 153.316406 663.394531 C 147.089844 656.269531 141.042969 649 135.171875 641.582031 C 129.300781 634.164062 123.617188 626.605469 118.117188 618.90625 C 112.617188 611.207031 107.308594 603.378906 102.195312 595.421875 C 97.078125 587.460938 92.164062 579.382812 87.445312 571.183594 C 82.726562 562.980469 78.210938 554.671875 73.902344 546.25 C 69.589844 537.828125 65.492188 529.304688 61.597656 520.679688 C 57.707031 512.058594 54.027344 503.34375 50.566406 494.542969 C 47.101562 485.738281 43.855469 476.855469 40.828125 467.890625 C 37.800781 458.929688 34.992188 449.894531 32.410156 440.796875 C 29.824219 431.695312 27.464844 422.535156 25.328125 413.320312 C 23.195312 404.101562 21.289062 394.839844 19.609375 385.527344 C 17.929688 376.21875 16.476562 366.871094 15.257812 357.488281 C 14.035156 348.109375 13.046875 338.703125 12.285156 329.273438 C 11.527344 319.84375 11 310.398438 10.703125 300.941406 C 10.40625 291.488281 10.34375 282.03125 10.511719 272.570312 C 10.683594 263.109375 11.082031 253.660156 11.714844 244.222656 C 12.347656 234.78125 13.210938 225.363281 14.308594 215.96875 C 15.402344 206.570312 16.726562 197.207031 18.28125 187.875 C 19.835938 178.542969 21.621094 169.253906 23.628906 160.007812 C 25.640625 150.765625 27.878906 141.574219 30.339844 132.441406 C 32.800781 123.304688 35.484375 114.234375 38.394531 105.234375 C 41.300781 96.230469 44.425781 87.304688 47.773438 78.453125 C 51.117188 69.605469 54.679688 60.84375 58.453125 52.167969 C 62.230469 43.492188 66.214844 34.917969 70.414062 26.4375 C 74.609375 17.960938 79.011719 9.589844 83.621094 1.324219 C 88.226562 -6.9375 93.035156 -15.082031 98.042969 -23.109375 C 103.050781 -31.136719 108.253906 -39.035156 113.648438 -46.804688 C 119.042969 -54.578125 124.628906 -62.210938 130.398438 -69.707031 C 136.167969 -77.207031 142.117188 -84.558594 148.25 -91.761719 C 154.382812 -98.964844 160.683594 -106.015625 167.164062 -112.914062 C 173.640625 -119.808594 180.28125 -126.539062 187.089844 -133.109375 C 193.898438 -139.679688 200.863281 -146.078125 207.984375 -152.304688 C 215.109375 -158.53125 222.378906 -164.582031 229.796875 -170.453125 C 237.21875 -176.324219 244.777344 -182.007812 252.472656 -187.507812 C 260.171875 -193.007812 268 -198.3125 275.960938 -203.429688 C 283.917969 -208.542969 291.996094 -213.460938 300.199219 -218.179688 C 308.398438 -222.894531 316.707031 -227.410156 325.128906 -231.722656 C 333.550781 -236.03125 342.074219 -240.132812 350.699219 -244.023438 C 359.320312 -247.914062 368.035156 -251.59375 376.839844 -255.058594 C 385.640625 -258.523438 394.527344 -261.769531 403.488281 -264.796875 C 412.453125 -267.824219 421.484375 -270.628906 430.585938 -273.214844 C 439.683594 -275.796875 448.84375 -278.15625 458.0625 -280.292969 C 467.277344 -282.425781 476.542969 -284.335938 485.851562 -286.015625 C 495.160156 -287.695312 504.507812 -289.144531 513.890625 -290.367188 C 523.269531 -291.585938 532.675781 -292.578125 542.105469 -293.335938 C 551.539062 -294.097656 560.980469 -294.625 570.4375 -294.917969 C 579.894531 -295.214844 589.351562 -295.277344 598.808594 -295.109375 C 608.269531 -294.941406 617.71875 -294.539062 627.15625 -293.90625 C 636.597656 -293.273438 646.015625 -292.410156 655.414062 -291.316406 C 664.808594 -290.222656 674.175781 -288.894531 683.507812 -287.339844 C 692.839844 -285.785156 702.125 -284.003906 711.371094 -281.992188 C 720.617188 -279.980469 729.804688 -277.746094 738.941406 -275.285156 C 748.074219 -272.820312 757.144531 -270.136719 766.148438 -267.230469 C 775.148438 -264.320312 784.074219 -261.195312 792.925781 -257.851562 C 801.773438 -254.503906 810.535156 -250.945312 819.210938 -247.167969 C 827.886719 -243.390625 836.460938 -239.40625 844.941406 -235.210938 C 853.421875 -231.011719 861.792969 -226.609375 870.054688 -222.003906 C 878.316406 -217.394531 886.460938 -212.585938 894.488281 -207.578125 C 902.515625 -202.570312 910.414062 -197.371094 918.183594 -191.972656 C 925.957031 -186.578125 933.589844 -180.996094 941.089844 -175.226562 C 948.585938 -169.453125 955.9375 -163.503906 963.140625 -157.371094 C 970.347656 -151.242188 977.398438 -144.9375 984.292969 -138.460938 C 991.1875 -131.984375 997.921875 -125.339844 1004.488281 -118.53125 C 1011.058594 -111.722656 1017.457031 -104.757812 1023.683594 -97.636719 C 1029.910156 -90.515625 1035.960938 -83.242188 1041.832031 -75.824219 C 1047.703125 -68.40625 1053.386719 -60.847656 1058.886719 -53.148438 C 1064.386719 -45.449219 1069.691406 -37.621094 1074.808594 -29.664062 C 1079.921875 -21.703125 1084.839844 -13.625 1089.558594 -5.425781 C 1094.277344 2.773438 1098.789062 11.085938 1103.101562 19.507812 C 1107.410156 27.929688 1111.511719 36.453125 1115.402344 45.074219 C 1119.296875 53.699219 1122.972656 62.410156 1126.4375 71.214844 C 1129.902344 80.019531 1133.148438 88.902344 1136.175781 97.867188 C 1139.203125 106.828125 1142.007812 115.859375 1144.59375 124.960938 C 1147.179688 134.0625 1149.539062 143.222656 1151.671875 152.4375 C 1153.808594 161.65625 1155.714844 170.917969 1157.394531 180.230469 C 1159.074219 189.539062 1160.523438 198.886719 1161.746094 208.265625 C 1162.96875 217.648438 1163.957031 227.054688 1164.714844 236.484375 C 1165.476562 245.914062 1166.003906 255.359375 1166.300781 264.8125 C 1166.59375 274.269531 1166.65625 283.726562 1166.488281 293.1875 Z M 1166.488281 293.1875 " clip-rule="nonzero"/></clipPath><linearGradient x1="0.122231" gradientTransform="matrix(1155.976238, 20.616397, -20.616397, 1155.976238, 20.821351, -305.417895)" y1="0.121033" x2="0.92298" gradientUnits="userSpaceOnUse" y2="0.913931" id="f3827071b0"><stop stop-opacity="1" stop-color="rgb(94.866943%, 96.562195%, 98.016357%)" offset="0"/><stop stop-opacity="1" stop-color="rgb(94.735718%, 96.473694%, 97.964478%)" offset="0.0078125"/><stop stop-opacity="1" stop-color="rgb(94.473267%, 96.296692%, 97.86377%)" offset="0.015625"/><stop stop-opacity="1" stop-color="rgb(94.20929%, 96.121216%, 97.761536%)" offset="0.0234375"/><stop stop-opacity="1" stop-color="rgb(93.946838%, 95.94574%, 97.660828%)" offset="0.03125"/><stop stop-opacity="1" stop-color="rgb(93.684387%, 95.768738%, 97.558594%)" offset="0.0390625"/><stop stop-opacity="1" stop-color="rgb(93.421936%, 95.593262%, 97.457886%)" offset="0.046875"/><stop stop-opacity="1" stop-color="rgb(93.159485%, 95.417786%, 97.355652%)" offset="0.0546875"/><stop stop-opacity="1" stop-color="rgb(92.897034%, 95.240784%, 97.254944%)" offset="0.0625"/><stop stop-opacity="1" stop-color="rgb(92.633057%, 95.065308%, 97.15271%)" offset="0.0703125"/><stop stop-opacity="1" stop-color="rgb(92.370605%, 94.889832%, 97.050476%)" offset="0.078125"/><stop stop-opacity="1" stop-color="rgb(92.108154%, 94.71283%, 96.949768%)" offset="0.0859375"/><stop stop-opacity="1" stop-color="rgb(91.845703%, 94.537354%, 96.847534%)" offset="0.09375"/><stop stop-opacity="1" stop-color="rgb(91.583252%, 94.361877%, 96.746826%)" offset="0.101562"/><stop stop-opacity="1" stop-color="rgb(91.320801%, 94.186401%, 96.644592%)" offset="0.109375"/><stop stop-opacity="1" stop-color="rgb(91.05835%, 94.009399%, 96.543884%)" offset="0.117188"/><stop stop-opacity="1" stop-color="rgb(90.794373%, 93.833923%, 96.44165%)" offset="0.125"/><stop stop-opacity="1" stop-color="rgb(90.531921%, 93.658447%, 96.340942%)" offset="0.132812"/><stop stop-opacity="1" stop-color="rgb(90.26947%, 93.481445%, 96.238708%)" offset="0.140625"/><stop stop-opacity="1" stop-color="rgb(90.007019%, 93.305969%, 96.138%)" offset="0.148438"/><stop stop-opacity="1" stop-color="rgb(89.744568%, 93.130493%, 96.035767%)" offset="0.15625"/><stop stop-opacity="1" stop-color="rgb(89.482117%, 92.953491%, 95.935059%)" offset="0.164062"/><stop stop-opacity="1" stop-color="rgb(89.21814%, 92.778015%, 95.832825%)" offset="0.171875"/><stop stop-opacity="1" stop-color="rgb(88.955688%, 92.602539%, 95.732117%)" offset="0.179688"/><stop stop-opacity="1" stop-color="rgb(88.693237%, 92.427063%, 95.629883%)" offset="0.1875"/><stop stop-opacity="1" stop-color="rgb(88.430786%, 92.250061%, 95.529175%)" offset="0.195312"/><stop stop-opacity="1" stop-color="rgb(88.168335%, 92.074585%, 95.426941%)" offset="0.203125"/><stop stop-opacity="1" stop-color="rgb(87.905884%, 91.899109%, 95.326233%)" offset="0.210938"/><stop stop-opacity="1" stop-color="rgb(87.643433%, 91.722107%, 95.223999%)" offset="0.21875"/><stop stop-opacity="1" stop-color="rgb(87.379456%, 91.546631%, 95.123291%)" offset="0.226563"/><stop stop-opacity="1" stop-color="rgb(87.117004%, 91.371155%, 95.021057%)" offset="0.234375"/><stop stop-opacity="1" stop-color="rgb(86.854553%, 91.194153%, 94.920349%)" offset="0.242187"/><stop stop-opacity="1" stop-color="rgb(86.592102%, 91.018677%, 94.818115%)" offset="0.25"/><stop stop-opacity="1" stop-color="rgb(86.329651%, 90.843201%, 94.715881%)" offset="0.257812"/><stop stop-opacity="1" stop-color="rgb(86.0672%, 90.666199%, 94.615173%)" offset="0.265625"/><stop stop-opacity="1" stop-color="rgb(85.803223%, 90.490723%, 94.512939%)" offset="0.273437"/><stop stop-opacity="1" stop-color="rgb(85.540771%, 90.315247%, 94.412231%)" offset="0.28125"/><stop stop-opacity="1" stop-color="rgb(85.27832%, 90.139771%, 94.309998%)" offset="0.289062"/><stop stop-opacity="1" stop-color="rgb(85.015869%, 89.962769%, 94.20929%)" offset="0.296875"/><stop stop-opacity="1" stop-color="rgb(84.753418%, 89.787292%, 94.107056%)" offset="0.304687"/><stop stop-opacity="1" stop-color="rgb(84.490967%, 89.611816%, 94.006348%)" offset="0.3125"/><stop stop-opacity="1" stop-color="rgb(84.228516%, 89.434814%, 93.904114%)" offset="0.320312"/><stop stop-opacity="1" stop-color="rgb(83.964539%, 89.259338%, 93.803406%)" offset="0.328125"/><stop stop-opacity="1" stop-color="rgb(83.702087%, 89.083862%, 93.701172%)" offset="0.335937"/><stop stop-opacity="1" stop-color="rgb(83.439636%, 88.90686%, 93.600464%)" offset="0.34375"/><stop stop-opacity="1" stop-color="rgb(83.177185%, 88.731384%, 93.49823%)" offset="0.351562"/><stop stop-opacity="1" stop-color="rgb(82.914734%, 88.555908%, 93.397522%)" offset="0.359375"/><stop stop-opacity="1" stop-color="rgb(82.652283%, 88.378906%, 93.295288%)" offset="0.367187"/><stop stop-opacity="1" stop-color="rgb(82.388306%, 88.20343%, 93.19458%)" offset="0.375"/><stop stop-opacity="1" stop-color="rgb(82.125854%, 88.027954%, 93.092346%)" offset="0.382812"/><stop stop-opacity="1" stop-color="rgb(81.863403%, 87.852478%, 92.991638%)" offset="0.390625"/><stop stop-opacity="1" stop-color="rgb(81.600952%, 87.675476%, 92.889404%)" offset="0.398437"/><stop stop-opacity="1" stop-color="rgb(81.338501%, 87.5%, 92.788696%)" offset="0.40625"/><stop stop-opacity="1" stop-color="rgb(81.07605%, 87.324524%, 92.686462%)" offset="0.414062"/><stop stop-opacity="1" stop-color="rgb(80.813599%, 87.147522%, 92.584229%)" offset="0.421875"/><stop stop-opacity="1" stop-color="rgb(80.549622%, 86.972046%, 92.483521%)" offset="0.429687"/><stop stop-opacity="1" stop-color="rgb(80.28717%, 86.79657%, 92.381287%)" offset="0.4375"/><stop stop-opacity="1" stop-color="rgb(80.024719%, 86.619568%, 92.280579%)" offset="0.445312"/><stop stop-opacity="1" stop-color="rgb(79.762268%, 86.444092%, 92.178345%)" offset="0.446999"/><stop stop-opacity="1" stop-color="rgb(79.631042%, 86.357117%, 92.127991%)" offset="0.453125"/><stop stop-opacity="1" stop-color="rgb(79.499817%, 86.268616%, 92.077637%)" offset="0.460938"/><stop stop-opacity="1" stop-color="rgb(79.237366%, 86.091614%, 91.975403%)" offset="0.46875"/><stop stop-opacity="1" stop-color="rgb(78.973389%, 85.916138%, 91.874695%)" offset="0.476562"/><stop stop-opacity="1" stop-color="rgb(78.710938%, 85.740662%, 91.772461%)" offset="0.484375"/><stop stop-opacity="1" stop-color="rgb(78.448486%, 85.565186%, 91.671753%)" offset="0.492188"/><stop stop-opacity="1" stop-color="rgb(78.186035%, 85.388184%, 91.569519%)" offset="0.5"/><stop stop-opacity="1" stop-color="rgb(77.923584%, 85.212708%, 91.468811%)" offset="0.507812"/><stop stop-opacity="1" stop-color="rgb(77.661133%, 85.037231%, 91.366577%)" offset="0.515625"/><stop stop-opacity="1" stop-color="rgb(77.398682%, 84.860229%, 91.265869%)" offset="0.523438"/><stop stop-opacity="1" stop-color="rgb(77.134705%, 84.684753%, 91.163635%)" offset="0.53125"/><stop stop-opacity="1" stop-color="rgb(76.872253%, 84.509277%, 91.062927%)" offset="0.539062"/><stop stop-opacity="1" stop-color="rgb(76.609802%, 84.332275%, 90.960693%)" offset="0.546875"/><stop stop-opacity="1" stop-color="rgb(76.347351%, 84.156799%, 90.859985%)" offset="0.553001"/><stop stop-opacity="1" stop-color="rgb(76.216125%, 84.069824%, 90.809631%)" offset="0.554688"/><stop stop-opacity="1" stop-color="rgb(76.0849%, 83.981323%, 90.757751%)" offset="0.5625"/><stop stop-opacity="1" stop-color="rgb(75.822449%, 83.804321%, 90.657043%)" offset="0.570312"/><stop stop-opacity="1" stop-color="rgb(75.558472%, 83.628845%, 90.55481%)" offset="0.578125"/><stop stop-opacity="1" stop-color="rgb(75.296021%, 83.453369%, 90.454102%)" offset="0.585938"/><stop stop-opacity="1" stop-color="rgb(75.033569%, 83.277893%, 90.351868%)" offset="0.59375"/><stop stop-opacity="1" stop-color="rgb(74.771118%, 83.100891%, 90.249634%)" offset="0.601562"/><stop stop-opacity="1" stop-color="rgb(74.508667%, 82.925415%, 90.148926%)" offset="0.609375"/><stop stop-opacity="1" stop-color="rgb(74.246216%, 82.749939%, 90.046692%)" offset="0.617188"/><stop stop-opacity="1" stop-color="rgb(73.983765%, 82.572937%, 89.945984%)" offset="0.625"/><stop stop-opacity="1" stop-color="rgb(73.719788%, 82.397461%, 89.84375%)" offset="0.632812"/><stop stop-opacity="1" stop-color="rgb(73.457336%, 82.221985%, 89.743042%)" offset="0.640625"/><stop stop-opacity="1" stop-color="rgb(73.194885%, 82.044983%, 89.640808%)" offset="0.648438"/><stop stop-opacity="1" stop-color="rgb(72.932434%, 81.869507%, 89.5401%)" offset="0.65625"/><stop stop-opacity="1" stop-color="rgb(72.669983%, 81.694031%, 89.437866%)" offset="0.664063"/><stop stop-opacity="1" stop-color="rgb(72.407532%, 81.518555%, 89.337158%)" offset="0.671875"/><stop stop-opacity="1" stop-color="rgb(72.143555%, 81.341553%, 89.234924%)" offset="0.679688"/><stop stop-opacity="1" stop-color="rgb(71.881104%, 81.166077%, 89.134216%)" offset="0.6875"/><stop stop-opacity="1" stop-color="rgb(71.618652%, 80.990601%, 89.031982%)" offset="0.695313"/><stop stop-opacity="1" stop-color="rgb(71.356201%, 80.813599%, 88.931274%)" offset="0.703125"/><stop stop-opacity="1" stop-color="rgb(71.09375%, 80.638123%, 88.829041%)" offset="0.710938"/><stop stop-opacity="1" stop-color="rgb(70.831299%, 80.462646%, 88.728333%)" offset="0.71875"/><stop stop-opacity="1" stop-color="rgb(70.568848%, 80.285645%, 88.626099%)" offset="0.726563"/><stop stop-opacity="1" stop-color="rgb(70.304871%, 80.110168%, 88.525391%)" offset="0.734375"/><stop stop-opacity="1" stop-color="rgb(70.042419%, 79.934692%, 88.423157%)" offset="0.742188"/><stop stop-opacity="1" stop-color="rgb(69.779968%, 79.75769%, 88.322449%)" offset="0.75"/><stop stop-opacity="1" stop-color="rgb(69.517517%, 79.582214%, 88.220215%)" offset="0.757813"/><stop stop-opacity="1" stop-color="rgb(69.255066%, 79.406738%, 88.117981%)" offset="0.765625"/><stop stop-opacity="1" stop-color="rgb(68.992615%, 79.231262%, 88.017273%)" offset="0.773438"/><stop stop-opacity="1" stop-color="rgb(68.728638%, 79.05426%, 87.915039%)" offset="0.78125"/><stop stop-opacity="1" stop-color="rgb(68.466187%, 78.878784%, 87.814331%)" offset="0.789062"/><stop stop-opacity="1" stop-color="rgb(68.203735%, 78.703308%, 87.712097%)" offset="0.796875"/><stop stop-opacity="1" stop-color="rgb(67.941284%, 78.526306%, 87.611389%)" offset="0.804688"/><stop stop-opacity="1" stop-color="rgb(67.678833%, 78.35083%, 87.509155%)" offset="0.8125"/><stop stop-opacity="1" stop-color="rgb(67.416382%, 78.175354%, 87.408447%)" offset="0.820312"/><stop stop-opacity="1" stop-color="rgb(67.153931%, 77.998352%, 87.306213%)" offset="0.828125"/><stop stop-opacity="1" stop-color="rgb(66.889954%, 77.822876%, 87.205505%)" offset="0.835938"/><stop stop-opacity="1" stop-color="rgb(66.627502%, 77.6474%, 87.103271%)" offset="0.84375"/><stop stop-opacity="1" stop-color="rgb(66.365051%, 77.470398%, 87.002563%)" offset="0.851562"/><stop stop-opacity="1" stop-color="rgb(66.1026%, 77.294922%, 86.90033%)" offset="0.859375"/><stop stop-opacity="1" stop-color="rgb(65.840149%, 77.119446%, 86.799622%)" offset="0.867188"/><stop stop-opacity="1" stop-color="rgb(65.577698%, 76.94397%, 86.697388%)" offset="0.875"/><stop stop-opacity="1" stop-color="rgb(65.315247%, 76.766968%, 86.59668%)" offset="0.882812"/><stop stop-opacity="1" stop-color="rgb(65.05127%, 76.591492%, 86.494446%)" offset="0.890625"/><stop stop-opacity="1" stop-color="rgb(64.788818%, 76.416016%, 86.393738%)" offset="0.898438"/><stop stop-opacity="1" stop-color="rgb(64.526367%, 76.239014%, 86.291504%)" offset="0.90625"/><stop stop-opacity="1" stop-color="rgb(64.263916%, 76.063538%, 86.190796%)" offset="0.914062"/><stop stop-opacity="1" stop-color="rgb(64.001465%, 75.888062%, 86.088562%)" offset="0.921875"/><stop stop-opacity="1" stop-color="rgb(63.739014%, 75.71106%, 85.986328%)" offset="0.929688"/><stop stop-opacity="1" stop-color="rgb(63.475037%, 75.535583%, 85.88562%)" offset="0.9375"/><stop stop-opacity="1" stop-color="rgb(63.212585%, 75.360107%, 85.783386%)" offset="0.945312"/><stop stop-opacity="1" stop-color="rgb(62.950134%, 75.183105%, 85.682678%)" offset="0.953125"/><stop stop-opacity="1" stop-color="rgb(62.687683%, 75.007629%, 85.580444%)" offset="0.960938"/><stop stop-opacity="1" stop-color="rgb(62.425232%, 74.832153%, 85.479736%)" offset="0.96875"/><stop stop-opacity="1" stop-color="rgb(62.162781%, 74.656677%, 85.377502%)" offset="0.976562"/><stop stop-opacity="1" stop-color="rgb(61.90033%, 74.479675%, 85.276794%)" offset="0.984375"/><stop stop-opacity="1" stop-color="rgb(61.636353%, 74.304199%, 85.174561%)" offset="0.992188"/><stop stop-opacity="1" stop-color="rgb(61.373901%, 74.128723%, 85.073853%)" offset="1"/></linearGradient><clipPath id="132f83a8f8"><rect x="0" width="1010" y="0" height="810"/></clipPath><mask id="7d48cca01f"><g filter="url(#d68ff41398)"><rect x="-144" width="1728" fill="#000000" y="-80.999999" height="971.999992" fill-opacity="0.65"/></g></mask><clipPath id="f434486e61"><path d="M 0 110 L 812 110 L 812 810 L 0 810 Z M 0 110 " clip-rule="nonzero"/></clipPath><clipPath id="f46c131b5b"><path d="M 165.144531 1054.347656 L -131.714844 287.019531 L 635.617188 -9.835938 L 932.472656 757.492188 Z M 165.144531 1054.347656 " clip-rule="nonzero"/></clipPath><clipPath id="b302efca38"><path d="M 165.144531 1054.347656 L -131.714844 287.019531 L 635.617188 -9.835938 L 932.472656 757.492188 Z M 165.144531 1054.347656 " clip-rule="nonzero"/></clipPath><clipPath id="b6446ccbb2"><path d="M 251.949219 138.617188 C 258.226562 136.1875 264.5625 133.914062 270.953125 131.796875 C 277.34375 129.679688 283.78125 127.71875 290.269531 125.917969 C 296.753906 124.113281 303.28125 122.472656 309.847656 120.992188 C 316.417969 119.507812 323.015625 118.191406 329.648438 117.03125 C 336.28125 115.875 342.9375 114.882812 349.617188 114.050781 C 356.296875 113.21875 362.996094 112.554688 369.707031 112.050781 C 376.421875 111.550781 383.144531 111.214844 389.875 111.042969 C 396.605469 110.871094 403.335938 110.863281 410.066406 111.023438 C 416.796875 111.179688 423.519531 111.503906 430.230469 111.992188 C 436.945312 112.480469 443.644531 113.132812 450.328125 113.953125 C 457.011719 114.769531 463.667969 115.75 470.304688 116.894531 C 476.9375 118.039062 483.539062 119.347656 490.109375 120.816406 C 496.679688 122.28125 503.210938 123.910156 509.699219 125.703125 C 516.191406 127.492188 522.632812 129.4375 529.027344 131.542969 C 535.421875 133.648438 541.761719 135.910156 548.042969 138.328125 C 554.328125 140.742188 560.546875 143.3125 566.707031 146.035156 C 572.863281 148.757812 578.949219 151.628906 584.964844 154.648438 C 590.984375 157.671875 596.921875 160.835938 602.78125 164.148438 C 608.644531 167.460938 614.417969 170.917969 620.109375 174.511719 C 625.800781 178.109375 631.402344 181.84375 636.910156 185.714844 C 642.417969 189.585938 647.828125 193.589844 653.136719 197.726562 C 658.449219 201.863281 663.65625 206.128906 668.757812 210.519531 C 673.859375 214.910156 678.851562 219.425781 683.730469 224.0625 C 688.613281 228.703125 693.375 233.457031 698.023438 238.328125 C 702.671875 243.199219 707.195312 248.179688 711.597656 253.273438 C 716 258.367188 720.273438 263.566406 724.421875 268.871094 C 728.566406 274.171875 732.582031 279.574219 736.464844 285.074219 C 740.347656 290.574219 744.089844 296.167969 747.699219 301.851562 C 751.304688 307.535156 754.773438 313.304688 758.09375 319.160156 C 761.417969 325.015625 764.597656 330.945312 767.632812 336.957031 C 770.664062 342.96875 773.546875 349.046875 776.28125 355.199219 C 779.015625 361.351562 781.597656 367.566406 784.027344 373.847656 C 786.457031 380.125 788.730469 386.460938 790.847656 392.851562 C 792.964844 399.242188 794.925781 405.679688 796.726562 412.167969 C 798.527344 418.652344 800.171875 425.179688 801.652344 431.746094 C 803.132812 438.3125 804.453125 444.914062 805.609375 451.546875 C 806.769531 458.179688 807.761719 464.835938 808.59375 471.515625 C 809.421875 478.195312 810.089844 484.894531 810.589844 491.605469 C 811.09375 498.320312 811.429688 505.042969 811.601562 511.773438 C 811.773438 518.503906 811.78125 525.234375 811.621094 531.960938 C 811.464844 538.691406 811.140625 545.414062 810.652344 552.128906 C 810.164062 558.84375 809.507812 565.542969 808.691406 572.226562 C 807.875 578.90625 806.894531 585.566406 805.75 592.199219 C 804.605469 598.835938 803.296875 605.4375 801.828125 612.007812 C 800.359375 618.578125 798.730469 625.109375 796.941406 631.597656 C 795.152344 638.085938 793.207031 644.53125 791.101562 650.925781 C 788.996094 657.320312 786.734375 663.660156 784.316406 669.941406 C 781.898438 676.226562 779.332031 682.445312 776.609375 688.601562 C 773.886719 694.761719 771.015625 700.847656 767.992188 706.863281 C 764.972656 712.878906 761.804688 718.820312 758.492188 724.679688 C 755.179688 730.539062 751.726562 736.316406 748.128906 742.007812 C 744.535156 747.699219 740.800781 753.300781 736.929688 758.808594 C 733.058594 764.316406 729.054688 769.726562 724.917969 775.035156 C 720.78125 780.347656 716.515625 785.554688 712.125 790.65625 C 707.730469 795.757812 703.214844 800.75 698.578125 805.628906 C 693.941406 810.511719 689.1875 815.273438 684.316406 819.921875 C 679.445312 824.566406 674.460938 829.09375 669.367188 833.496094 C 664.277344 837.898438 659.078125 842.171875 653.773438 846.320312 C 648.472656 850.464844 643.070312 854.480469 637.570312 858.363281 C 632.066406 862.246094 626.476562 865.988281 620.792969 869.597656 C 615.105469 873.203125 609.339844 876.667969 603.484375 879.992188 C 597.628906 883.316406 591.695312 886.496094 585.6875 889.527344 C 579.675781 892.5625 573.59375 895.445312 567.441406 898.179688 C 561.289062 900.914062 555.074219 903.496094 548.796875 905.925781 C 542.519531 908.351562 536.183594 910.625 529.792969 912.746094 C 523.402344 914.863281 516.964844 916.824219 510.476562 918.625 C 503.992188 920.425781 497.464844 922.070312 490.894531 923.550781 C 484.328125 925.03125 477.730469 926.351562 471.097656 927.507812 C 464.464844 928.664062 457.808594 929.660156 451.128906 930.492188 C 444.445312 931.320312 437.75 931.988281 431.035156 932.488281 C 424.324219 932.992188 417.601562 933.328125 410.871094 933.5 C 404.140625 933.671875 397.410156 933.679688 390.679688 933.519531 C 383.949219 933.359375 377.226562 933.039062 370.511719 932.546875 C 363.796875 932.058594 357.101562 931.40625 350.417969 930.589844 C 343.734375 929.773438 337.078125 928.789062 330.441406 927.644531 C 323.808594 926.5 317.207031 925.195312 310.636719 923.726562 C 304.066406 922.257812 297.535156 920.628906 291.046875 918.839844 C 284.554688 917.050781 278.113281 915.101562 271.71875 912.996094 C 265.324219 910.890625 258.984375 908.632812 252.703125 906.214844 C 246.417969 903.796875 240.199219 901.226562 234.039062 898.507812 C 227.882812 895.785156 221.796875 892.914062 215.78125 889.890625 C 209.761719 886.871094 203.824219 883.703125 197.964844 880.390625 C 192.101562 877.078125 186.328125 873.625 180.636719 870.027344 C 174.945312 866.429688 169.34375 862.699219 163.835938 858.828125 C 158.328125 854.957031 152.917969 850.953125 147.605469 846.816406 C 142.296875 842.679688 137.089844 838.414062 131.988281 834.023438 C 126.886719 829.628906 121.894531 825.113281 117.011719 820.476562 C 112.132812 815.839844 107.371094 811.085938 102.722656 806.214844 C 98.074219 801.34375 93.550781 796.359375 89.148438 791.265625 C 84.746094 786.171875 80.472656 780.976562 76.324219 775.671875 C 72.175781 770.367188 68.164062 764.964844 64.28125 759.464844 C 60.398438 753.964844 56.652344 748.375 53.046875 742.6875 C 49.441406 737.003906 45.972656 731.234375 42.648438 725.382812 C 39.324219 719.527344 36.148438 713.59375 33.113281 707.585938 C 30.082031 701.574219 27.199219 695.492188 24.464844 689.339844 C 21.730469 683.1875 19.148438 676.972656 16.71875 670.695312 C 14.289062 664.414062 12.015625 658.082031 9.898438 651.691406 C 7.78125 645.300781 5.820312 638.863281 4.019531 632.375 C 2.214844 625.886719 0.574219 619.359375 -0.90625 612.792969 C -2.386719 606.226562 -3.707031 599.628906 -4.863281 592.996094 C -6.023438 586.363281 -7.015625 579.707031 -7.847656 573.027344 C -8.679688 566.34375 -9.34375 559.648438 -9.847656 552.933594 C -10.347656 546.222656 -10.683594 539.5 -10.855469 532.769531 C -11.027344 526.039062 -11.035156 519.308594 -10.875 512.578125 C -10.71875 505.847656 -10.394531 499.125 -9.90625 492.410156 C -9.417969 485.695312 -8.761719 478.996094 -7.945312 472.316406 C -7.128906 465.632812 -6.148438 458.976562 -5.003906 452.339844 C -3.859375 445.707031 -2.550781 439.105469 -1.082031 432.535156 C 0.386719 425.964844 2.015625 419.433594 3.804688 412.941406 C 5.59375 406.453125 7.539062 400.011719 9.644531 393.617188 C 11.75 387.222656 14.011719 380.882812 16.429688 374.597656 C 18.84375 368.316406 21.414062 362.09375 24.136719 355.9375 C 26.859375 349.78125 29.730469 343.695312 32.753906 337.675781 C 35.773438 331.660156 38.941406 325.722656 42.253906 319.859375 C 45.566406 314 49.019531 308.222656 52.617188 302.53125 C 56.210938 296.839844 59.945312 291.242188 63.816406 285.734375 C 67.6875 280.226562 71.691406 274.816406 75.828125 269.503906 C 79.964844 264.195312 84.230469 258.988281 88.621094 253.882812 C 93.015625 248.78125 97.527344 243.792969 102.167969 238.910156 C 106.804688 234.03125 111.558594 229.265625 116.429688 224.621094 C 121.300781 219.972656 126.28125 215.449219 131.375 211.046875 C 136.46875 206.644531 141.667969 202.367188 146.972656 198.222656 C 152.273438 194.074219 157.675781 190.058594 163.175781 186.179688 C 168.675781 182.296875 174.269531 178.550781 179.953125 174.945312 C 185.636719 171.335938 191.40625 167.871094 197.261719 164.546875 C 203.117188 161.222656 209.046875 158.046875 215.058594 155.011719 C 221.070312 151.980469 227.152344 149.097656 233.304688 146.363281 C 239.453125 143.628906 245.671875 141.046875 251.949219 138.617188 Z M 251.949219 138.617188 " clip-rule="nonzero"/></clipPath><linearGradient x1="-0.0433499" gradientTransform="matrix(-296.847379, -767.307393, 767.307393, -296.847379, 165.142719, 1054.347855)" y1="-0.0429249" x2="1.149972" gradientUnits="userSpaceOnUse" y2="1.138697" id="65eb41fdcd"><stop stop-opacity="1" stop-color="rgb(100%, 100%, 100%)" offset="0"/><stop stop-opacity="1" stop-color="rgb(100%, 100%, 100%)" offset="0.03125"/><stop stop-opacity="1" stop-color="rgb(99.931335%, 99.952698%, 99.972534%)" offset="0.0390625"/><stop stop-opacity="1" stop-color="rgb(99.665833%, 99.775696%, 99.8703%)" offset="0.0429688"/><stop stop-opacity="1" stop-color="rgb(99.47052%, 99.64447%, 99.795532%)" offset="0.046875"/><stop stop-opacity="1" stop-color="rgb(99.275208%, 99.513245%, 99.719238%)" offset="0.0546875"/><stop stop-opacity="1" stop-color="rgb(98.883057%, 99.252319%, 99.568176%)" offset="0.0585938"/><stop stop-opacity="1" stop-color="rgb(98.687744%, 99.121094%, 99.491882%)" offset="0.0625"/><stop stop-opacity="1" stop-color="rgb(98.490906%, 98.989868%, 99.415588%)" offset="0.0664062"/><stop stop-opacity="1" stop-color="rgb(98.295593%, 98.858643%, 99.34082%)" offset="0.0703125"/><stop stop-opacity="1" stop-color="rgb(98.100281%, 98.727417%, 99.264526%)" offset="0.078125"/><stop stop-opacity="1" stop-color="rgb(97.70813%, 98.464966%, 99.113464%)" offset="0.0820313"/><stop stop-opacity="1" stop-color="rgb(97.512817%, 98.33374%, 99.038696%)" offset="0.0859375"/><stop stop-opacity="1" stop-color="rgb(97.317505%, 98.202515%, 98.962402%)" offset="0.09375"/><stop stop-opacity="1" stop-color="rgb(96.925354%, 97.940063%, 98.81134%)" offset="0.0976563"/><stop stop-opacity="1" stop-color="rgb(96.730042%, 97.810364%, 98.736572%)" offset="0.101563"/><stop stop-opacity="1" stop-color="rgb(96.534729%, 97.679138%, 98.660278%)" offset="0.109375"/><stop stop-opacity="1" stop-color="rgb(96.142578%, 97.416687%, 98.509216%)" offset="0.113281"/><stop stop-opacity="1" stop-color="rgb(95.947266%, 97.285461%, 98.432922%)" offset="0.117188"/><stop stop-opacity="1" stop-color="rgb(95.751953%, 97.154236%, 98.356628%)" offset="0.125"/><stop stop-opacity="1" stop-color="rgb(95.359802%, 96.891785%, 98.205566%)" offset="0.128906"/><stop stop-opacity="1" stop-color="rgb(95.16449%, 96.760559%, 98.130798%)" offset="0.132813"/><stop stop-opacity="1" stop-color="rgb(94.967651%, 96.629333%, 98.054504%)" offset="0.136719"/><stop stop-opacity="1" stop-color="rgb(94.772339%, 96.498108%, 97.979736%)" offset="0.140625"/><stop stop-opacity="1" stop-color="rgb(94.577026%, 96.366882%, 97.903442%)" offset="0.148438"/><stop stop-opacity="1" stop-color="rgb(94.184875%, 96.105957%, 97.75238%)" offset="0.152344"/><stop stop-opacity="1" stop-color="rgb(93.989563%, 95.974731%, 97.677612%)" offset="0.15625"/><stop stop-opacity="1" stop-color="rgb(93.79425%, 95.843506%, 97.601318%)" offset="0.164062"/><stop stop-opacity="1" stop-color="rgb(93.4021%, 95.581055%, 97.450256%)" offset="0.167969"/><stop stop-opacity="1" stop-color="rgb(93.206787%, 95.449829%, 97.373962%)" offset="0.171875"/><stop stop-opacity="1" stop-color="rgb(93.011475%, 95.318604%, 97.297668%)" offset="0.179688"/><stop stop-opacity="1" stop-color="rgb(92.619324%, 95.056152%, 97.146606%)" offset="0.183594"/><stop stop-opacity="1" stop-color="rgb(92.424011%, 94.924927%, 97.071838%)" offset="0.1875"/><stop stop-opacity="1" stop-color="rgb(92.228699%, 94.793701%, 96.995544%)" offset="0.195313"/><stop stop-opacity="1" stop-color="rgb(91.836548%, 94.532776%, 96.844482%)" offset="0.199219"/><stop stop-opacity="1" stop-color="rgb(91.641235%, 94.40155%, 96.769714%)" offset="0.203125"/><stop stop-opacity="1" stop-color="rgb(91.445923%, 94.270325%, 96.69342%)" offset="0.210938"/><stop stop-opacity="1" stop-color="rgb(91.053772%, 94.007874%, 96.542358%)" offset="0.214844"/><stop stop-opacity="1" stop-color="rgb(90.858459%, 93.876648%, 96.46759%)" offset="0.21875"/><stop stop-opacity="1" stop-color="rgb(90.661621%, 93.745422%, 96.391296%)" offset="0.222656"/><stop stop-opacity="1" stop-color="rgb(90.466309%, 93.614197%, 96.316528%)" offset="0.226562"/><stop stop-opacity="1" stop-color="rgb(90.270996%, 93.482971%, 96.240234%)" offset="0.234375"/><stop stop-opacity="1" stop-color="rgb(89.878845%, 93.22052%, 96.087646%)" offset="0.238281"/><stop stop-opacity="1" stop-color="rgb(89.683533%, 93.09082%, 96.012878%)" offset="0.242188"/><stop stop-opacity="1" stop-color="rgb(89.48822%, 92.959595%, 95.936584%)" offset="0.25"/><stop stop-opacity="1" stop-color="rgb(89.096069%, 92.697144%, 95.785522%)" offset="0.253906"/><stop stop-opacity="1" stop-color="rgb(88.900757%, 92.565918%, 95.710754%)" offset="0.257813"/><stop stop-opacity="1" stop-color="rgb(88.705444%, 92.434692%, 95.63446%)" offset="0.265625"/><stop stop-opacity="1" stop-color="rgb(88.313293%, 92.172241%, 95.483398%)" offset="0.269531"/><stop stop-opacity="1" stop-color="rgb(88.117981%, 92.041016%, 95.40863%)" offset="0.273438"/><stop stop-opacity="1" stop-color="rgb(87.922668%, 91.90979%, 95.332336%)" offset="0.28125"/><stop stop-opacity="1" stop-color="rgb(87.530518%, 91.647339%, 95.181274%)" offset="0.285156"/><stop stop-opacity="1" stop-color="rgb(87.335205%, 91.517639%, 95.10498%)" offset="0.289063"/><stop stop-opacity="1" stop-color="rgb(87.138367%, 91.386414%, 95.028687%)" offset="0.292969"/><stop stop-opacity="1" stop-color="rgb(86.943054%, 91.255188%, 94.953918%)" offset="0.296875"/><stop stop-opacity="1" stop-color="rgb(86.747742%, 91.123962%, 94.877625%)" offset="0.304688"/><stop stop-opacity="1" stop-color="rgb(86.355591%, 90.861511%, 94.726562%)" offset="0.308594"/><stop stop-opacity="1" stop-color="rgb(86.160278%, 90.730286%, 94.651794%)" offset="0.3125"/><stop stop-opacity="1" stop-color="rgb(85.964966%, 90.59906%, 94.5755%)" offset="0.320312"/><stop stop-opacity="1" stop-color="rgb(85.572815%, 90.336609%, 94.424438%)" offset="0.324219"/><stop stop-opacity="1" stop-color="rgb(85.377502%, 90.205383%, 94.34967%)" offset="0.328125"/><stop stop-opacity="1" stop-color="rgb(85.18219%, 90.074158%, 94.273376%)" offset="0.335938"/><stop stop-opacity="1" stop-color="rgb(84.790039%, 89.813232%, 94.122314%)" offset="0.339844"/><stop stop-opacity="1" stop-color="rgb(84.594727%, 89.682007%, 94.046021%)" offset="0.34375"/><stop stop-opacity="1" stop-color="rgb(84.399414%, 89.550781%, 93.969727%)" offset="0.351562"/><stop stop-opacity="1" stop-color="rgb(84.007263%, 89.28833%, 93.818665%)" offset="0.355469"/><stop stop-opacity="1" stop-color="rgb(83.811951%, 89.157104%, 93.743896%)" offset="0.359375"/><stop stop-opacity="1" stop-color="rgb(83.615112%, 89.025879%, 93.667603%)" offset="0.363281"/><stop stop-opacity="1" stop-color="rgb(83.4198%, 88.894653%, 93.592834%)" offset="0.367188"/><stop stop-opacity="1" stop-color="rgb(83.224487%, 88.763428%, 93.516541%)" offset="0.375"/><stop stop-opacity="1" stop-color="rgb(82.832336%, 88.500977%, 93.365479%)" offset="0.378906"/><stop stop-opacity="1" stop-color="rgb(82.637024%, 88.371277%, 93.29071%)" offset="0.382812"/><stop stop-opacity="1" stop-color="rgb(82.441711%, 88.240051%, 93.214417%)" offset="0.390625"/><stop stop-opacity="1" stop-color="rgb(82.049561%, 87.9776%, 93.063354%)" offset="0.394531"/><stop stop-opacity="1" stop-color="rgb(81.854248%, 87.846375%, 92.988586%)" offset="0.398438"/><stop stop-opacity="1" stop-color="rgb(81.658936%, 87.715149%, 92.912292%)" offset="0.40625"/><stop stop-opacity="1" stop-color="rgb(81.266785%, 87.452698%, 92.759705%)" offset="0.410156"/><stop stop-opacity="1" stop-color="rgb(81.071472%, 87.321472%, 92.684937%)" offset="0.414062"/><stop stop-opacity="1" stop-color="rgb(80.87616%, 87.190247%, 92.608643%)" offset="0.421875"/><stop stop-opacity="1" stop-color="rgb(80.484009%, 86.927795%, 92.457581%)" offset="0.425781"/><stop stop-opacity="1" stop-color="rgb(80.288696%, 86.798096%, 92.382812%)" offset="0.429688"/><stop stop-opacity="1" stop-color="rgb(80.091858%, 86.66687%, 92.306519%)" offset="0.433594"/><stop stop-opacity="1" stop-color="rgb(79.896545%, 86.535645%, 92.23175%)" offset="0.4375"/><stop stop-opacity="1" stop-color="rgb(79.701233%, 86.404419%, 92.155457%)" offset="0.445313"/><stop stop-opacity="1" stop-color="rgb(79.309082%, 86.141968%, 92.004395%)" offset="0.449219"/><stop stop-opacity="1" stop-color="rgb(79.11377%, 86.010742%, 91.929626%)" offset="0.453125"/><stop stop-opacity="1" stop-color="rgb(78.918457%, 85.879517%, 91.853333%)" offset="0.460938"/><stop stop-opacity="1" stop-color="rgb(78.526306%, 85.617065%, 91.700745%)" offset="0.464844"/><stop stop-opacity="1" stop-color="rgb(78.330994%, 85.48584%, 91.625977%)" offset="0.46875"/><stop stop-opacity="1" stop-color="rgb(78.135681%, 85.354614%, 91.549683%)" offset="0.476563"/><stop stop-opacity="1" stop-color="rgb(77.74353%, 85.092163%, 91.398621%)" offset="0.480469"/><stop stop-opacity="1" stop-color="rgb(77.548218%, 84.962463%, 91.323853%)" offset="0.484375"/><stop stop-opacity="1" stop-color="rgb(77.352905%, 84.831238%, 91.247559%)" offset="0.485981"/><stop stop-opacity="1" stop-color="rgb(77.157593%, 84.700012%, 91.172791%)" offset="0.492188"/><stop stop-opacity="1" stop-color="rgb(76.960754%, 84.568787%, 91.096497%)" offset="0.496094"/><stop stop-opacity="1" stop-color="rgb(76.765442%, 84.437561%, 91.021729%)" offset="0.5"/><stop stop-opacity="1" stop-color="rgb(76.568604%, 84.306335%, 90.945435%)" offset="0.503906"/><stop stop-opacity="1" stop-color="rgb(76.373291%, 84.17511%, 90.870667%)" offset="0.507813"/><stop stop-opacity="1" stop-color="rgb(76.177979%, 84.043884%, 90.794373%)" offset="0.514019"/><stop stop-opacity="1" stop-color="rgb(75.982666%, 83.912659%, 90.718079%)" offset="0.515625"/><stop stop-opacity="1" stop-color="rgb(75.785828%, 83.781433%, 90.641785%)" offset="0.519531"/><stop stop-opacity="1" stop-color="rgb(75.590515%, 83.650208%, 90.567017%)" offset="0.523438"/><stop stop-opacity="1" stop-color="rgb(75.395203%, 83.518982%, 90.490723%)" offset="0.53125"/><stop stop-opacity="1" stop-color="rgb(75.003052%, 83.258057%, 90.339661%)" offset="0.535156"/><stop stop-opacity="1" stop-color="rgb(74.807739%, 83.126831%, 90.264893%)" offset="0.539063"/><stop stop-opacity="1" stop-color="rgb(74.612427%, 82.995605%, 90.188599%)" offset="0.546875"/><stop stop-opacity="1" stop-color="rgb(74.220276%, 82.733154%, 90.037537%)" offset="0.550781"/><stop stop-opacity="1" stop-color="rgb(74.024963%, 82.601929%, 89.962769%)" offset="0.554688"/><stop stop-opacity="1" stop-color="rgb(73.829651%, 82.470703%, 89.886475%)" offset="0.5625"/><stop stop-opacity="1" stop-color="rgb(73.4375%, 82.208252%, 89.735413%)" offset="0.566406"/><stop stop-opacity="1" stop-color="rgb(73.242188%, 82.077026%, 89.660645%)" offset="0.570313"/><stop stop-opacity="1" stop-color="rgb(73.046875%, 81.945801%, 89.584351%)" offset="0.578125"/><stop stop-opacity="1" stop-color="rgb(72.654724%, 81.684875%, 89.431763%)" offset="0.582031"/><stop stop-opacity="1" stop-color="rgb(72.459412%, 81.55365%, 89.356995%)" offset="0.585938"/><stop stop-opacity="1" stop-color="rgb(72.262573%, 81.422424%, 89.280701%)" offset="0.589844"/><stop stop-opacity="1" stop-color="rgb(72.067261%, 81.291199%, 89.205933%)" offset="0.59375"/><stop stop-opacity="1" stop-color="rgb(71.871948%, 81.159973%, 89.129639%)" offset="0.601563"/><stop stop-opacity="1" stop-color="rgb(71.479797%, 80.897522%, 88.978577%)" offset="0.605469"/><stop stop-opacity="1" stop-color="rgb(71.284485%, 80.766296%, 88.903809%)" offset="0.609375"/><stop stop-opacity="1" stop-color="rgb(71.089172%, 80.635071%, 88.827515%)" offset="0.617188"/><stop stop-opacity="1" stop-color="rgb(70.697021%, 80.37262%, 88.676453%)" offset="0.621094"/><stop stop-opacity="1" stop-color="rgb(70.501709%, 80.24292%, 88.601685%)" offset="0.625"/><stop stop-opacity="1" stop-color="rgb(70.306396%, 80.111694%, 88.525391%)" offset="0.632812"/><stop stop-opacity="1" stop-color="rgb(69.914246%, 79.849243%, 88.372803%)" offset="0.636719"/><stop stop-opacity="1" stop-color="rgb(69.718933%, 79.718018%, 88.298035%)" offset="0.640625"/><stop stop-opacity="1" stop-color="rgb(69.523621%, 79.586792%, 88.221741%)" offset="0.648438"/><stop stop-opacity="1" stop-color="rgb(69.13147%, 79.324341%, 88.070679%)" offset="0.652344"/><stop stop-opacity="1" stop-color="rgb(68.936157%, 79.193115%, 87.995911%)" offset="0.65625"/><stop stop-opacity="1" stop-color="rgb(68.739319%, 79.06189%, 87.919617%)" offset="0.660156"/><stop stop-opacity="1" stop-color="rgb(68.544006%, 78.930664%, 87.844849%)" offset="0.664062"/><stop stop-opacity="1" stop-color="rgb(68.348694%, 78.799438%, 87.768555%)" offset="0.671875"/><stop stop-opacity="1" stop-color="rgb(67.956543%, 78.538513%, 87.617493%)" offset="0.675781"/><stop stop-opacity="1" stop-color="rgb(67.76123%, 78.407288%, 87.542725%)" offset="0.679688"/><stop stop-opacity="1" stop-color="rgb(67.565918%, 78.276062%, 87.466431%)" offset="0.6875"/><stop stop-opacity="1" stop-color="rgb(67.173767%, 78.013611%, 87.313843%)" offset="0.691406"/><stop stop-opacity="1" stop-color="rgb(66.978455%, 77.882385%, 87.239075%)" offset="0.695312"/><stop stop-opacity="1" stop-color="rgb(66.783142%, 77.75116%, 87.162781%)" offset="0.703125"/><stop stop-opacity="1" stop-color="rgb(66.390991%, 77.488708%, 87.011719%)" offset="0.707031"/><stop stop-opacity="1" stop-color="rgb(66.195679%, 77.357483%, 86.936951%)" offset="0.710938"/><stop stop-opacity="1" stop-color="rgb(66.000366%, 77.226257%, 86.860657%)" offset="0.71875"/><stop stop-opacity="1" stop-color="rgb(65.608215%, 76.965332%, 86.709595%)" offset="0.722656"/><stop stop-opacity="1" stop-color="rgb(65.412903%, 76.834106%, 86.634827%)" offset="0.726562"/><stop stop-opacity="1" stop-color="rgb(65.216064%, 76.702881%, 86.558533%)" offset="0.730469"/><stop stop-opacity="1" stop-color="rgb(65.020752%, 76.571655%, 86.483765%)" offset="0.734375"/><stop stop-opacity="1" stop-color="rgb(64.825439%, 76.44043%, 86.407471%)" offset="0.742188"/><stop stop-opacity="1" stop-color="rgb(64.433289%, 76.177979%, 86.256409%)" offset="0.746094"/><stop stop-opacity="1" stop-color="rgb(64.237976%, 76.046753%, 86.180115%)" offset="0.75"/><stop stop-opacity="1" stop-color="rgb(64.042664%, 75.915527%, 86.103821%)" offset="0.757813"/><stop stop-opacity="1" stop-color="rgb(63.650513%, 75.653076%, 85.952759%)" offset="0.761719"/><stop stop-opacity="1" stop-color="rgb(63.4552%, 75.523376%, 85.877991%)" offset="0.765625"/><stop stop-opacity="1" stop-color="rgb(63.259888%, 75.392151%, 85.801697%)" offset="0.773438"/><stop stop-opacity="1" stop-color="rgb(62.867737%, 75.1297%, 85.650635%)" offset="0.777344"/><stop stop-opacity="1" stop-color="rgb(62.672424%, 74.998474%, 85.575867%)" offset="0.78125"/><stop stop-opacity="1" stop-color="rgb(62.477112%, 74.867249%, 85.499573%)" offset="0.789063"/><stop stop-opacity="1" stop-color="rgb(62.084961%, 74.604797%, 85.348511%)" offset="0.792969"/><stop stop-opacity="1" stop-color="rgb(61.889648%, 74.473572%, 85.273743%)" offset="0.796875"/><stop stop-opacity="1" stop-color="rgb(61.69281%, 74.342346%, 85.197449%)" offset="0.800781"/><stop stop-opacity="1" stop-color="rgb(61.497498%, 74.211121%, 85.121155%)" offset="0.804688"/><stop stop-opacity="1" stop-color="rgb(61.302185%, 74.079895%, 85.044861%)" offset="0.8125"/><stop stop-opacity="1" stop-color="rgb(60.910034%, 73.81897%, 84.893799%)" offset="0.816406"/><stop stop-opacity="1" stop-color="rgb(60.714722%, 73.687744%, 84.819031%)" offset="0.820313"/><stop stop-opacity="1" stop-color="rgb(60.519409%, 73.556519%, 84.742737%)" offset="0.828125"/><stop stop-opacity="1" stop-color="rgb(60.127258%, 73.294067%, 84.591675%)" offset="0.832031"/><stop stop-opacity="1" stop-color="rgb(59.931946%, 73.162842%, 84.516907%)" offset="0.835938"/><stop stop-opacity="1" stop-color="rgb(59.736633%, 73.031616%, 84.440613%)" offset="0.84375"/><stop stop-opacity="1" stop-color="rgb(59.344482%, 72.769165%, 84.289551%)" offset="0.847656"/><stop stop-opacity="1" stop-color="rgb(59.14917%, 72.637939%, 84.214783%)" offset="0.851563"/><stop stop-opacity="1" stop-color="rgb(58.953857%, 72.506714%, 84.138489%)" offset="0.859375"/><stop stop-opacity="1" stop-color="rgb(58.561707%, 72.245789%, 83.985901%)" offset="0.863281"/><stop stop-opacity="1" stop-color="rgb(58.366394%, 72.114563%, 83.911133%)" offset="0.867188"/><stop stop-opacity="1" stop-color="rgb(58.169556%, 71.983337%, 83.834839%)" offset="0.871094"/><stop stop-opacity="1" stop-color="rgb(57.974243%, 71.852112%, 83.760071%)" offset="0.875"/><stop stop-opacity="1" stop-color="rgb(57.778931%, 71.720886%, 83.683777%)" offset="0.882813"/><stop stop-opacity="1" stop-color="rgb(57.441711%, 71.49353%, 83.554077%)" offset="0.890625"/><stop stop-opacity="1" stop-color="rgb(57.299805%, 71.398926%, 83.499146%)" offset="0.90625"/><stop stop-opacity="1" stop-color="rgb(57.299805%, 71.398926%, 83.499146%)" offset="0.9375"/><stop stop-opacity="1" stop-color="rgb(57.299805%, 71.398926%, 83.499146%)" offset="1"/></linearGradient><clipPath id="d19daa3753"><rect x="0" width="933" y="0" height="810"/></clipPath></defs><rect x="-144" width="1728" fill="#ffffff" y="-80.999999" height="971.999992" fill-opacity="1"/><rect x="-144" width="1728" fill="#ffffff" y="-80.999999" height="971.999992" fill-opacity="1"/><g mask="url(#0d38b05ec9)"><g transform="matrix(1, 0, 0, 1, 430, 0.000000000000039746)"><g clip-path="url(#132f83a8f8)"><g clip-path="url(#df6b167d43)"><g clip-path="url(#988772de29)"><g clip-path="url(#d233d33ba3)"><g clip-path="url(#7e7de99026)"><path fill="url(#f3827071b0)" d="M 10.664062 -17.824219 L -4.097656 809.742188 L 1009.683594 827.824219 L 1024.441406 0.257812 Z M 10.664062 -17.824219 " fill-rule="nonzero"/></g></g></g></g></g></g></g><g mask="url(#7d48cca01f)"><g transform="matrix(1, 0, 0, 1, 0, 0.000000000000039746)"><g clip-path="url(#d19daa3753)"><g clip-path="url(#f434486e61)"><g clip-path="url(#f46c131b5b)"><g clip-path="url(#b302efca38)"><g clip-path="url(#b6446ccbb2)"><path fill="url(#65eb41fdcd)" d="M 105.679688 1083.167969 L 1047.042969 718.984375 L 706.101562 -162.304688 L -235.261719 201.878906 Z M 105.679688 1083.167969 " fill-rule="nonzero"/></g></g></g></g></g></g></g></svg>